<?xml version="1.0" standalone="no"?>
<!DOCTYPE svg PUBLIC "-//W3C//DTD SVG 20010904//EN"
 "http://www.w3.org/TR/2001/REC-SVG-20010904/DTD/svg10.dtd">
<svg version="1.0" xmlns="http://www.w3.org/2000/svg"
 width="736.000000pt" height="736.000000pt" viewBox="0 0 736.000000 736.000000"
 preserveAspectRatio="xMidYMid meet">

<g transform="translate(0.000000,736.000000) scale(0.100000,-0.100000)"
fill="#000000" stroke="none">
<path d="M0 4694 l0 -2665 51 73 c27 40 89 132 136 203 48 72 104 153 125 182
23 30 48 81 62 125 24 77 89 207 136 268 14 19 38 56 53 82 48 83 69 92 242
99 82 3 170 11 195 18 25 7 152 27 283 45 l237 33 33 35 c17 19 43 38 57 42
14 4 45 30 70 57 36 40 60 55 120 77 43 16 126 62 195 108 66 44 158 103 205
131 47 28 137 82 201 120 l116 70 -23 44 c-12 24 -28 65 -34 92 -7 26 -13 47
-15 47 -2 0 -28 -25 -58 -57 -51 -53 -57 -56 -109 -61 -48 -4 -58 -1 -77 19
-28 30 -27 66 4 111 32 47 31 51 -4 30 -27 -15 -32 -15 -63 0 -108 51 -180
163 -270 422 -13 38 -14 39 -65 41 -124 4 -254 160 -283 338 -15 93 -12 281 6
382 25 138 108 338 206 494 21 33 25 48 18 62 -17 32 -23 189 -10 254 46 225
265 430 600 562 41 17 101 40 132 52 61 24 291 87 373 103 127 23 217 38 300
49 50 6 137 27 195 47 98 33 115 36 255 40 140 4 219 -4 334 -34 9 -2 -2 5
-24 15 -108 52 -359 100 -448 86 -23 -4 -79 -22 -125 -41 -97 -40 -121 -42
-150 -11 -77 82 53 200 268 243 68 13 115 16 230 11 181 -8 303 -33 427 -89
77 -34 111 -57 170 -113 61 -58 77 -80 94 -130 32 -93 23 -187 -29 -287 -2 -5
7 -8 21 -8 44 0 199 -50 268 -86 132 -70 260 -199 311 -314 11 -25 26 -72 35
-105 8 -35 35 -92 63 -135 147 -229 226 -419 260 -621 21 -119 22 -143 12
-215 -20 -136 -37 -178 -96 -238 -47 -48 -59 -56 -104 -62 -36 -4 -53 -12 -57
-24 -3 -10 -5 -75 -4 -146 2 -123 0 -133 -29 -205 -52 -129 -100 -338 -112
-496 -7 -78 -9 -150 -6 -161 8 -24 -9 -70 -35 -98 -28 -30 -18 -102 18 -136
14 -13 34 -40 44 -60 12 -24 40 -51 77 -74 31 -20 70 -47 85 -60 27 -23 34
-24 121 -18 109 8 139 -2 204 -69 36 -37 44 -53 54 -108 6 -35 15 -69 20 -76
5 -6 41 -17 81 -23 78 -14 204 -55 549 -181 413 -151 404 -149 638 -160 408
-20 485 -40 536 -144 15 -31 35 -60 45 -66 19 -9 19 53 19 2461 l0 2470 -3680
0 -3680 0 0 -2666z"/>
<path d="M3438 7044 c-65 -15 -147 -54 -168 -79 -14 -17 -20 -19 88 24 121 48
416 12 592 -73 87 -42 181 -134 203 -200 18 -51 21 -127 8 -161 -7 -16 -9 -14
-14 13 -10 47 -80 118 -153 152 -108 52 -202 71 -354 72 -136 0 -198 -10 -315
-55 -22 -8 -94 -23 -160 -32 -741 -101 -1247 -358 -1341 -683 -18 -60 -20
-176 -4 -213 9 -22 10 -22 5 6 -10 53 12 165 45 231 56 114 209 223 417 297
66 24 242 61 250 53 2 -2 -47 -41 -109 -88 -313 -235 -557 -508 -698 -780
-104 -200 -140 -339 -140 -532 0 -197 26 -283 112 -366 72 -70 100 -83 50 -24
-75 90 -85 143 -56 309 19 112 84 310 126 384 36 65 126 187 158 216 l22 20
-22 -55 c-43 -109 -52 -136 -71 -215 -54 -226 -25 -630 65 -879 48 -130 68
-167 131 -233 45 -47 51 -51 32 -21 -27 41 -50 142 -50 222 -1 28 10 82 22
120 l23 68 41 -68 c22 -38 64 -121 94 -184 55 -114 55 -116 50 -190 -3 -42
-12 -93 -21 -114 -9 -22 -15 -41 -12 -43 10 -11 96 92 117 141 13 31 26 55 29
55 3 0 20 -18 38 -39 22 -25 40 -64 54 -112 25 -88 48 -136 88 -182 l30 -34
-87 -47 c-49 -26 -110 -62 -138 -80 -27 -18 -102 -63 -165 -101 -63 -37 -168
-102 -232 -145 -100 -66 -206 -119 -238 -119 -5 0 -33 -29 -62 -65 -41 -51
-56 -64 -71 -59 -15 5 -29 -4 -56 -36 -35 -41 -38 -42 -121 -51 -119 -12 -421
-56 -505 -73 -38 -8 -116 -14 -172 -14 -56 0 -109 -4 -117 -9 -46 -26 -199
-291 -233 -403 -13 -44 -39 -92 -79 -146 -32 -45 -89 -128 -127 -185 -37 -57
-90 -137 -118 -177 -58 -84 -89 -161 -96 -244 -3 -32 -10 -58 -14 -58 -12 0
-12 -57 0 -64 8 -5 122 57 194 106 24 16 32 17 67 7 22 -7 39 -16 38 -19 -9
-22 -232 -202 -264 -214 -37 -12 -39 -15 -42 -59 -2 -26 0 -47 3 -47 10 0 345
301 407 366 32 33 78 87 104 120 67 86 67 87 60 24 -4 -30 -10 -96 -15 -145
-8 -89 -22 -134 -68 -207 -13 -21 -23 -46 -23 -55 0 -14 2 -15 9 -5 9 14 22
-31 20 -72 0 -19 -1 -19 -8 -3 -8 22 -19 12 -39 -35 -10 -24 -9 -29 11 -43 20
-14 22 -14 29 2 3 10 7 14 7 8 1 -5 6 -3 11 5 7 11 10 11 10 2 0 -7 -9 -22
-20 -34 -11 -12 -20 -27 -20 -32 0 -6 4 -5 9 3 7 10 10 10 16 1 9 -14 -14 -32
-29 -23 -5 3 -6 1 -2 -5 8 -13 68 9 66 24 -3 27 -12 61 -21 77 -5 9 -8 48 -5
85 2 37 1 54 -3 37 l-7 -30 -6 28 c-7 37 1 74 13 56 4 -8 11 -10 16 -6 4 5 1
12 -7 18 -11 6 -12 11 -4 17 7 4 14 16 17 27 2 11 4 -38 3 -110 l-1 -130 38
-79 c20 -43 50 -97 65 -120 149 -218 193 -280 241 -340 31 -37 75 -96 97 -129
23 -33 55 -67 72 -76 16 -9 66 -50 110 -93 62 -59 77 -79 68 -89 -9 -11 -8
-11 6 0 14 10 24 8 63 -11 l46 -24 -91 -87 c-85 -82 -111 -102 -94 -75 4 7 3
8 -5 4 -6 -4 -9 -11 -6 -16 4 -6 -198 -202 -300 -292 -5 -4 6 -8 26 -8 28 0
46 11 101 60 63 57 88 74 72 48 -4 -7 -3 -8 5 -4 6 4 9 11 7 15 -7 11 82 96
91 88 4 -4 -3 -14 -15 -23 -12 -8 -19 -20 -16 -26 5 -7 2 -8 -6 -3 -9 5 -11 4
-6 -3 5 -8 1 -10 -11 -6 -17 5 -17 5 -1 -6 10 -6 18 -16 18 -22 0 -9 -3 -9
-12 0 -17 17 -24 15 -25 -8 -1 -11 3 -20 10 -20 8 0 7 -4 -1 -12 -10 -10 -15
-10 -22 2 -8 13 -11 12 -24 -5 -12 -15 -15 -16 -16 -5 0 9 -11 2 -30 -19 -16
-18 -27 -37 -24 -42 7 -13 14 -11 12 2 -2 6 3 14 10 16 7 3 11 -1 10 -9 -2 -8
9 -14 33 -16 39 -3 108 32 109 56 0 8 -3 12 -8 10 -92 -47 -132 -53 -132 -22
0 17 17 18 23 2 4 -10 6 -10 6 0 1 6 6 12 12 12 5 0 7 -6 3 -12 -6 -9 -3 -9 9
0 9 8 22 10 28 6 8 -5 9 -3 4 6 -6 10 -4 12 10 7 17 -7 17 -6 1 18 -16 25 -10
35 10 15 6 -6 10 -3 11 11 2 24 43 60 60 54 20 -7 15 9 -8 29 l-21 18 43 45
c24 24 67 63 94 86 l50 41 -40 -44 c-22 -25 -45 -48 -52 -53 -7 -4 -9 -14 -6
-23 4 -10 1 -15 -8 -14 -34 5 -42 1 -29 -15 10 -13 11 -18 1 -28 -10 -9 -11
-9 -8 3 2 8 2 12 0 7 -3 -4 -10 -5 -16 -1 -7 3 -2 -4 11 -15 14 -12 20 -25 16
-32 -5 -8 -3 -9 5 -5 7 5 10 15 7 23 -4 9 -2 11 6 7 7 -4 8 -3 4 5 -4 6 2 25
14 41 15 21 17 30 8 30 -7 0 -4 6 7 12 11 6 26 19 32 27 7 9 -10 -33 -38 -92
-52 -109 -56 -137 -20 -134 11 0 18 5 15 9 -3 4 4 16 16 28 23 23 24 21 10
-14 -7 -20 -6 -24 5 -19 9 3 15 19 15 39 0 19 5 34 10 34 13 0 12 -13 -5 -85
-18 -77 -18 -75 5 -75 12 0 21 8 24 23 29 132 38 199 43 299 l6 116 28 6 c16
3 82 53 156 117 70 62 137 120 148 130 19 16 26 15 135 -13 63 -16 207 -44
320 -63 201 -34 206 -35 232 -67 15 -17 26 -34 23 -36 -2 -3 -64 2 -137 9 -73
8 -195 13 -271 11 -78 -1 -136 1 -133 6 3 5 32 8 66 6 33 -1 58 1 56 5 -2 3
16 4 40 2 27 -2 44 1 44 8 0 6 -5 11 -12 11 -6 0 -9 2 -6 5 8 9 38 -6 32 -16
-3 -5 6 -9 20 -9 32 0 43 17 14 23 -21 4 -20 4 4 6 14 0 28 -3 30 -9 2 -5 14
-7 28 -3 22 6 19 8 -25 21 -76 21 -137 33 -165 33 -14 0 -38 6 -55 14 -16 7
-49 13 -72 12 -23 -1 -41 2 -40 7 3 12 -101 47 -108 36 -3 -4 1 -11 7 -14 7
-3 3 -3 -9 0 -15 3 -23 -1 -27 -14 -4 -11 -16 -28 -28 -38 -12 -11 -18 -13
-13 -5 5 9 3 12 -6 9 -8 -3 -15 -14 -15 -26 -1 -25 6 -28 25 -10 11 10 12 10
7 1 -4 -7 -16 -18 -28 -24 -15 -8 -19 -8 -14 0 4 6 4 11 -1 11 -13 0 -35 -17
-34 -26 0 -5 -5 -10 -12 -10 -6 -1 -16 -2 -22 -3 -5 -1 -3 -6 5 -12 12 -8 10
-9 -7 -4 -24 7 -32 -9 -10 -19 6 -3 -1 -3 -16 -1 -24 3 -27 1 -22 -15 6 -20
-36 -70 -59 -70 -6 0 -4 -5 4 -10 12 -7 10 -9 -8 -7 -29 2 -25 10 17 39 19 13
36 29 39 36 2 7 -16 -2 -41 -20 -25 -18 -47 -40 -50 -48 -4 -12 -5 -11 -6 3 0
9 -5 17 -11 17 -6 0 -8 -15 -4 -37 3 -21 9 -65 13 -98 5 -33 9 -46 10 -30 1
17 5 36 10 43 14 22 21 -22 21 -130 l0 -98 40 0 40 0 0 -40 0 -40 45 0 45 0
-3 249 c-1 137 -4 248 -7 246 -3 -2 -12 1 -20 7 -12 8 -12 9 3 4 13 -4 17 -1
15 11 -2 9 4 18 12 20 11 3 11 2 3 -4 -8 -6 -9 -13 -2 -23 8 -13 11 -13 22 1
9 12 33 16 102 18 50 1 98 4 108 7 9 3 17 2 17 -3 0 -5 -50 -14 -111 -20 -62
-7 -114 -15 -118 -18 -3 -4 -7 -117 -9 -251 l-3 -244 27 0 c24 0 26 3 21 33
-11 61 -18 412 -9 425 7 10 66 16 220 24 180 9 234 8 356 -6 79 -9 185 -16
235 -16 l91 0 0 60 c0 92 -17 156 -49 183 -18 14 -79 38 -162 61 -73 21 -160
47 -193 58 -82 27 -266 109 -266 119 0 21 24 17 82 -12 59 -30 288 -112 294
-106 2 2 -47 23 -109 47 -62 24 -139 56 -173 71 l-61 27 68 73 c48 50 69 81
69 98 0 14 -16 74 -37 133 l-37 107 53 123 c29 68 66 141 81 163 15 22 25 47
23 55 -4 12 -3 13 5 1 11 -15 2 -57 -29 -128 -11 -25 -18 -48 -16 -50 3 -2 14
20 27 49 58 137 123 259 135 254 17 -6 31 11 40 47 5 17 3 27 -4 27 -6 0 -8
-7 -4 -17 4 -11 3 -14 -5 -9 -8 5 -10 1 -5 -10 4 -12 3 -15 -5 -10 -8 5 -10 1
-5 -11 4 -13 3 -15 -6 -7 -16 14 23 109 40 98 8 -5 9 -3 5 5 -10 15 63 183 75
175 5 -3 9 -10 9 -15 0 -6 -5 -7 -12 -3 -8 5 -9 2 -5 -10 4 -10 1 -19 -8 -23
-13 -5 -13 -7 2 -19 21 -16 53 -18 53 -4 0 6 -9 10 -20 10 -28 0 -25 17 9 48
16 15 32 37 36 50 3 12 11 19 17 16 7 -4 8 -2 4 4 -11 19 -16 73 -5 66 5 -3 7
-8 5 -12 -4 -6 57 -9 92 -4 17 3 16 82 -1 82 -8 0 -12 17 -13 55 0 52 -7 75
-20 62 -3 -3 -1 -14 4 -23 8 -14 5 -28 -9 -56 -25 -48 -34 -49 -14 -2 29 70
14 58 -26 -21 -30 -59 -39 -87 -35 -109 5 -22 3 -26 -7 -18 -10 8 -13 5 -12
-16 0 -17 -5 -27 -15 -27 -20 0 -19 4 43 140 29 66 58 131 64 145 l11 25 16
-37 c14 -34 20 -38 51 -38 34 0 35 1 35 40 l0 40 40 0 c39 0 40 1 40 35 0 34
-1 35 -42 36 -27 1 -34 3 -19 6 19 4 21 7 10 14 -9 6 0 7 26 4 47 -7 80 9 55
25 -8 5 -24 7 -35 3 -10 -3 -32 -7 -48 -8 -16 -1 -34 -10 -39 -19 -5 -9 -17
-16 -26 -15 -14 0 -13 2 3 9 l20 9 -20 1 c-18 1 -17 2 5 14 14 7 42 16 62 20
21 4 61 18 90 31 29 13 100 36 158 51 58 14 113 31 124 36 23 12 41 -9 24 -29
-7 -9 -6 -19 4 -35 9 -15 12 -34 8 -53 l-7 -30 -4 30 -4 29 -103 1 c-73 1
-108 -2 -117 -11 -7 -7 -15 -10 -19 -7 -3 4 -6 -3 -6 -15 0 -15 6 -22 20 -22
11 0 20 -7 20 -15 0 -8 5 -15 10 -15 6 0 10 14 10 30 0 28 2 30 40 30 29 0 40
-4 40 -15 0 -11 11 -15 40 -15 31 0 40 -4 40 -17 0 -15 2 -16 10 -3 5 8 13 11
17 6 4 -4 0 -13 -10 -20 -9 -7 -17 -23 -17 -35 0 -12 -6 -21 -15 -21 -8 0 -15
-9 -15 -20 0 -11 7 -20 15 -20 10 0 15 -10 15 -30 0 -46 18 -36 23 12 l4 43 1
-41 c2 -32 7 -43 26 -54 14 -7 27 -24 29 -39 2 -14 3 -9 2 12 -2 20 0 35 4 33
4 -3 7 4 7 14 0 10 -4 16 -8 14 -5 -3 -7 7 -6 23 4 63 -2 124 -13 118 -7 -5
-9 9 -7 42 2 38 -1 51 -17 65 -11 9 -16 20 -12 25 23 22 44 -39 65 -188 70
-491 67 -453 48 -552 -9 -49 -15 -92 -12 -95 4 -3 6 3 6 13 0 10 2 16 5 14 2
-3 0 -34 -5 -70 -6 -38 -6 -77 -1 -94 5 -17 10 -28 11 -25 2 3 6 70 10 150 l8
145 -4 -170 c-5 -253 -79 -911 -173 -1529 -23 -148 -41 -275 -41 -282 0 -12
231 -14 1493 -14 l1492 1 -40 35 c-42 37 -95 56 -222 78 -86 16 -174 55 -292
131 -38 24 -86 52 -107 63 -22 11 -53 33 -71 49 -20 18 -44 29 -68 31 -39 2
-128 32 -233 76 -35 15 -123 41 -195 57 -122 28 -136 33 -187 75 -30 24 -78
62 -106 84 -32 24 -60 56 -73 84 -20 40 -21 49 -10 85 7 23 16 41 21 41 10 0
6 23 -7 32 -5 4 -6 10 -3 13 4 4 34 -21 67 -54 47 -47 84 -73 158 -109 l98
-47 120 1 c180 2 205 5 194 26 -22 41 -114 93 -263 149 -86 32 -162 77 -291
174 -33 24 -84 58 -112 75 -37 22 -69 54 -108 107 -55 76 -60 89 -49 131 8 28
21 27 58 -2 l29 -24 -16 -47 c-12 -34 -14 -53 -6 -66 5 -10 12 -19 15 -19 3 0
2 5 -1 10 -4 6 1 33 10 61 14 40 15 56 6 76 l-11 25 30 -22 c17 -12 27 -26 24
-32 -5 -7 -2 -8 5 -4 7 5 20 1 30 -8 20 -18 99 -62 276 -152 99 -51 347 -144
384 -144 8 0 23 7 32 16 17 16 19 15 29 -10 5 -15 14 -25 20 -21 11 7 4 30
-21 66 -20 29 -256 208 -370 281 -141 90 -284 196 -281 208 1 6 -2 9 -8 5 -9
-6 -160 90 -160 102 0 3 3 3 6 0 9 -9 44 38 54 73 11 39 -4 39 -20 1 -6 -16
-17 -28 -23 -27 -7 2 -9 1 -4 -1 4 -3 7 -11 7 -19 0 -17 -10 -17 -32 0 -10 7
-14 17 -10 21 4 5 1 5 -6 1 -16 -10 -89 39 -97 65 -7 20 10 58 34 76 13 9 29
4 81 -24 58 -31 62 -32 35 -8 l-30 26 55 -24 c178 -79 480 -249 603 -339 166
-121 318 -209 372 -214 l40 -5 -33 18 c-33 17 -39 40 -8 35 9 -2 16 3 16 10 0
29 -49 89 -169 211 -70 70 -125 127 -122 127 3 0 -5 6 -19 13 -14 7 -24 21
-24 30 1 9 -1 15 -5 12 -9 -5 -100 85 -102 100 0 6 -5 9 -11 7 -10 -3 -203
177 -227 212 -11 16 -11 18 -1 9 8 -7 17 -13 22 -13 18 0 -8 32 -63 76 -41 33
-59 54 -59 70 0 22 33 54 56 54 7 0 135 -82 286 -182 246 -164 283 -193 373
-286 121 -126 230 -219 350 -299 61 -41 128 -100 209 -184 170 -178 220 -216
88 -67 -63 70 -118 130 -123 133 -5 4 -9 10 -9 15 0 11 65 -25 99 -54 28 -25
160 -201 168 -224 3 -10 45 -58 92 -107 103 -109 270 -325 281 -366 5 -16 18
-98 30 -183 22 -148 22 -157 6 -229 -9 -41 -32 -107 -51 -146 -19 -40 -35 -75
-35 -77 0 -2 72 -4 160 -4 l160 0 0 48 c0 83 -20 313 -36 411 -22 139 -61 212
-119 223 -19 4 -19 5 3 17 23 12 29 8 105 -67 45 -43 110 -106 145 -138 52
-49 68 -73 97 -144 23 -54 37 -105 38 -140 3 -51 12 -75 65 -177 20 -38 42
-43 42 -10 l1 22 19 -23 c15 -18 27 -23 54 -20 l36 3 -56 35 c-91 57 -111 78
-128 126 -13 40 -14 45 -1 40 26 -10 178 -114 235 -161 53 -43 57 -45 122 -45
l67 0 -1 523 c-1 463 -2 512 -13 429 -7 -51 -16 -96 -20 -100 -4 -4 -4 7 0 23
4 17 9 110 11 208 2 98 6 188 9 200 5 16 4 18 -3 8 -8 -11 -10 -11 -14 0 -3 8
-5 -45 -4 -118 0 -72 -2 -126 -6 -120 -4 7 -5 -60 -3 -148 8 -239 9 -405 3
-410 -10 -10 -16 516 -10 775 10 378 -12 841 -48 988 -11 46 -20 87 -20 92 0
14 74 -69 99 -110 l21 -35 0 51 c0 47 -3 55 -39 87 -22 19 -48 40 -59 46 -11
6 -23 26 -26 44 -3 18 -19 46 -35 61 -38 37 -143 52 -436 66 l-220 9 -145 50
c-80 27 -246 86 -370 131 -314 115 -426 150 -492 154 -78 5 -125 42 -134 106
-3 25 -7 56 -10 69 -4 28 -47 77 -85 96 -19 10 -42 11 -95 5 -103 -14 -106
-13 -165 31 -30 23 -76 52 -103 64 -38 19 -52 32 -68 67 -24 53 -46 78 -70 78
-10 0 -18 6 -19 13 0 6 -6 68 -13 137 -7 69 -10 135 -7 148 6 22 7 22 24 -12
18 -39 43 -50 34 -15 -11 41 13 332 33 394 10 33 24 85 30 115 7 30 29 98 49
150 35 92 36 99 37 235 0 110 6 167 27 265 39 187 47 256 47 397 l0 128 20
-25 c43 -53 101 -185 111 -252 13 -83 -2 -196 -32 -242 -17 -26 -14 -24 15 8
127 139 84 471 -107 814 -32 59 -78 134 -101 167 -31 43 -45 74 -49 110 -20
155 -177 336 -368 424 -61 29 -257 71 -328 71 -17 0 -31 2 -31 5 0 3 16 19 35
36 48 43 99 149 99 208 -1 157 -200 301 -479 346 -112 18 -321 18 -397 -1z
m324 -274 c72 -10 169 -41 231 -72 81 -40 147 -120 147 -178 0 -17 -8 -14 -55
25 -31 25 -102 68 -159 96 -134 65 -255 92 -423 93 -67 1 -119 4 -115 8 13 13
164 36 237 37 39 0 100 -4 137 -9z m771 -411 c111 -56 237 -169 289 -259 29
-50 71 -150 65 -156 -2 -3 -37 46 -78 108 -91 138 -186 241 -270 291 -69 41
-73 49 -6 16z m-590 -892 c-3 -5 -1 -7 5 -3 15 9 67 -130 85 -227 l14 -78 -36
-16 c-20 -8 -55 -17 -77 -20 l-42 -5 15 88 c8 49 16 141 17 204 1 99 3 112 13
92 7 -13 10 -29 6 -35z m360 -21 c-3 -6 -2 -8 2 -3 11 10 58 -70 49 -85 -4 -7
-3 -8 4 -4 7 4 21 -13 37 -45 15 -28 25 -52 23 -54 -3 -3 -132 -24 -134 -21
-1 0 -4 61 -6 134 -4 130 -3 133 14 112 10 -12 15 -27 11 -34z m-1028 -220
c14 -43 28 -111 32 -151 l6 -73 -38 -12 c-21 -7 -64 -16 -97 -19 -51 -7 -58
-5 -52 8 11 28 73 345 74 376 l0 30 25 -40 c14 -22 36 -75 50 -119z m1168 -42
c-2 -18 1 -24 6 -16 11 19 81 -179 81 -231 0 -15 -3 -16 -22 -6 -16 8 -64 10
-166 6 -142 -6 -144 -6 -126 14 9 10 29 19 43 19 31 0 15 20 -18 23 -14 1 -19
6 -16 17 3 8 13 48 23 88 10 40 23 77 28 81 10 10 143 40 159 36 6 -1 9 -15 8
-31z m-336 4 c-3 -8 -6 -5 -6 6 -1 11 2 17 5 13 3 -3 4 -12 1 -19z m34 -94 c4
-16 7 -48 8 -70 1 -39 -1 -42 -29 -46 -25 -4 -30 -2 -25 11 3 9 9 44 12 79 6
66 23 79 34 26z m-1215 1 c-3 -8 -1 -15 4 -15 6 0 10 -31 10 -70 l0 -69 -41
-11 c-23 -6 -43 -10 -45 -7 -7 6 60 187 70 187 4 0 6 -7 2 -15z m1124 -40 c0
-25 -4 -45 -9 -45 -4 0 -6 -11 -4 -24 4 -20 -1 -28 -28 -42 -34 -17 -86 -54
-77 -54 3 0 25 7 48 15 24 8 45 14 47 12 10 -11 -12 -35 -55 -59 -26 -14 -58
-39 -72 -53 l-25 -28 32 17 c43 21 52 20 47 -6 -3 -17 -1 -16 7 5 6 15 17 27
26 27 12 0 12 -2 -1 -16 -9 -8 -16 -17 -16 -20 0 -6 47 3 60 11 5 3 10 -2 10
-12 0 -10 3 -28 6 -40 5 -17 1 -22 -23 -27 -38 -9 -93 -43 -93 -57 0 -7 8 -5
20 6 21 19 67 28 358 66 176 23 206 39 76 39 l-72 0 -11 43 c-7 23 -15 48 -18
56 -3 8 -1 11 5 7 6 -3 13 -2 16 3 7 11 146 4 162 -9 8 -8 14 -8 19 0 3 5 -2
10 -11 10 -10 0 -14 3 -11 7 4 3 22 -2 41 -12 33 -18 35 -22 46 -101 11 -77
10 -84 -10 -125 l-22 -44 47 45 c25 25 61 71 79 103 27 47 35 55 40 40 32 -81
55 -393 45 -586 -7 -121 -14 -165 -38 -245 -80 -259 -398 -794 -523 -880 -58
-40 -121 -55 -205 -50 -77 4 -140 32 -324 144 -95 58 -108 70 -123 108 -15 39
-15 46 0 81 15 38 15 39 -16 83 -22 32 -28 48 -21 55 27 27 0 64 -94 132 -37
27 -164 134 -291 247 -66 58 -92 66 -167 46 l-58 -15 -30 51 c-16 28 -27 59
-25 69 2 9 1 15 -3 13 -7 -5 -46 67 -78 143 l-14 33 28 -19 c31 -21 84 -45 89
-41 1 2 -17 27 -41 56 -50 60 -86 144 -92 217 -4 40 1 65 25 125 17 41 45 121
62 177 33 110 43 121 118 138 l32 7 0 -44 c0 -35 -14 -140 -35 -255 -2 -13 0
-23 4 -23 11 0 42 36 36 41 -2 3 14 17 37 32 44 28 116 52 186 60 37 4 41 3
31 -9 -7 -8 -18 -13 -26 -10 -8 3 -12 2 -9 -3 6 -9 -36 -31 -58 -31 -7 0 -60
-23 -117 -52 -57 -29 -108 -54 -113 -56 -5 -3 -5 1 -1 8 5 9 4 11 -4 6 -6 -4
-9 -11 -6 -15 2 -5 -7 -19 -22 -32 -42 -39 -81 -139 -54 -139 10 0 165 96 193
120 10 8 19 21 19 30 1 8 5 -1 8 -20 4 -19 10 -44 14 -55 5 -17 -5 -26 -63
-59 -39 -22 -68 -41 -67 -43 2 -2 105 37 228 85 123 49 232 92 242 95 32 12 9
26 -26 16 -17 -5 -33 -9 -34 -9 -1 0 -12 20 -26 44 l-25 45 46 15 c25 9 58 16
74 16 15 0 28 5 28 10 0 20 -55 32 -118 26 l-64 -5 30 33 c39 45 91 138 119
211 12 33 22 57 22 53 1 -3 8 -42 16 -85 8 -43 15 -126 15 -185 0 -59 4 -109
8 -112 14 -8 114 78 166 143 27 33 52 58 56 56 4 -3 7 3 6 13 0 10 5 16 13 14
8 -2 11 3 8 11 -3 8 -1 20 4 28 27 43 -12 -139 -40 -187 -10 -17 -27 -44 -36
-60 -10 -16 19 7 64 51 45 44 93 98 106 120 26 45 79 179 94 240 10 39 12 41
83 62 101 29 98 30 98 -22z m-764 -179 c-9 -37 -25 -84 -35 -105 -18 -35 -24
-39 -69 -44 -28 -3 -82 -17 -121 -30 -39 -13 -70 -19 -68 -13 3 6 10 10 16 8
7 -1 10 2 7 7 -8 12 78 193 88 184 4 -4 4 0 1 9 -5 13 1 18 32 23 21 3 61 11
88 18 28 6 53 10 58 9 4 -1 7 4 8 11 0 8 2 8 5 1 3 -7 -2 -42 -10 -78z m1607
22 c16 -31 27 -64 25 -74 -2 -14 -8 -12 -36 14 l-33 31 -14 -23 c-20 -31 -51
-122 -59 -177 -5 -36 -3 -49 9 -59 13 -11 19 -9 39 9 l23 21 11 -25 c15 -33
15 -35 -2 -35 -17 0 -72 -61 -82 -92 l-8 -23 -7 25 c-10 34 -10 218 0 310 6
55 15 87 35 118 38 60 62 55 99 -20z m-743 36 c0 -11 -49 -34 -71 -34 -12 0
-11 24 1 36 15 15 70 13 70 -2z m-110 -107 c0 -2 -10 -12 -21 -23 -22 -19 -22
-19 -10 4 10 18 31 31 31 19z m800 -22 c0 -8 -4 -15 -10 -15 -5 0 -7 7 -4 15
4 8 8 15 10 15 2 0 4 -7 4 -15z m98 -117 c20 -175 17 -226 -23 -325 -19 -48
-35 -99 -35 -114 0 -25 -18 -74 -57 -157 -9 -18 -29 -40 -44 -48 l-29 -15 0
39 c0 60 25 118 68 159 44 42 83 144 81 212 0 30 -3 25 -15 -28 -7 -36 -18
-69 -23 -74 -9 -9 -48 43 -72 97 -16 33 20 100 61 114 27 10 31 9 45 -16 10
-20 14 -22 15 -9 0 20 -32 87 -64 132 -11 16 -20 36 -18 42 2 7 -2 13 -8 13
-6 0 -8 -4 -5 -10 3 -5 1 -10 -6 -10 -7 0 -9 9 -5 23 3 12 6 28 6 35 0 6 11
12 24 12 29 0 49 22 40 43 -5 15 -3 15 23 2 28 -14 30 -19 41 -117z m-120 -48
c-15 -23 -28 -26 -28 -7 0 17 10 27 27 27 11 0 11 -4 1 -20z m-1864 -138 c3
-5 -1 -9 -9 -9 -8 0 -12 4 -9 9 3 4 7 8 9 8 2 0 6 -4 9 -8z m-48 -27 c-23 -17
-9 -19 28 -5 33 12 33 7 0 -15 -31 -20 -67 -29 -58 -13 4 7 3 8 -4 4 -6 -4 -9
-13 -6 -20 3 -7 -2 -16 -10 -19 -37 -15 -11 37 34 67 30 20 42 21 16 1z m1887
-129 c-4 -5 -10 -23 -14 -40 -5 -24 -7 -16 -8 34 0 60 1 63 13 40 8 -14 12
-29 9 -34z m-2230 0 c9 -7 17 -16 17 -20 0 -3 15 -20 33 -37 17 -18 24 -26 15
-19 -9 6 -21 9 -26 6 -5 -3 -20 6 -33 21 -13 14 -18 23 -11 19 6 -4 12 -3 12
3 0 5 -10 13 -21 16 -27 9 -47 -17 -21 -27 16 -6 16 -7 0 -7 -12 -1 -18 -9
-18 -23 0 -17 3 -19 9 -10 5 9 9 -8 10 -45 1 -32 5 -82 10 -111 4 -30 4 -49 0
-45 -14 14 -40 222 -33 259 7 37 26 43 57 20z m62 -158 c4 4 5 -2 3 -12 -1
-11 4 -21 12 -23 13 -4 13 -3 0 6 -9 7 -10 11 -3 11 21 0 26 -21 9 -39 -17
-18 -45 -175 -34 -187 4 -3 20 4 37 17 l30 22 55 -28 c50 -25 56 -32 56 -59 0
-26 -8 -36 -46 -60 l-47 -30 -21 27 c-23 28 -46 36 -46 15 0 -6 7 -20 17 -30
9 -10 12 -18 7 -18 -23 0 -82 125 -90 190 -10 76 -16 200 -10 215 5 15 9 15
35 -4 15 -11 32 -17 36 -13z m48 19 c4 3 7 1 7 -6 0 -7 9 -26 20 -41 11 -16
47 -83 81 -151 46 -93 57 -124 47 -130 -9 -6 -15 3 -23 34 -8 34 -17 46 -53
65 -24 13 -58 24 -77 24 -32 0 -35 3 -35 29 0 29 1 29 24 14 22 -14 25 -14 40
0 9 9 16 18 16 19 0 17 -29 80 -54 116 -16 25 -23 39 -15 33 9 -7 19 -10 22
-6z m16 -124 c-1 -17 -3 -21 -6 -10 -2 9 -9 17 -14 17 -6 0 -7 -6 -3 -12 5
-10 3 -10 -7 0 -12 11 -12 14 1 22 24 15 30 12 29 -17z m2051 -573 c6 -52 23
-160 37 -238 14 -79 21 -147 17 -152 -5 -4 -37 -11 -72 -14 l-63 -7 6 163 c4
90 8 168 10 175 2 7 0 15 -4 18 -13 7 -23 -73 -30 -225 l-6 -135 -60 -7 c-33
-4 -98 -12 -145 -17 -47 -6 -120 -12 -163 -14 l-78 -4 38 41 c88 93 171 219
296 446 91 167 185 362 189 391 0 8 4 -62 9 -156 4 -93 12 -213 19 -265z
m-1717 389 c12 -6 38 -26 57 -45 33 -31 93 -82 288 -241 58 -48 82 -73 82 -89
0 -13 -4 -25 -9 -28 -16 -10 -93 -148 -117 -208 -13 -33 -35 -72 -50 -87 -15
-14 -40 -47 -56 -73 -16 -27 -34 -48 -39 -48 -4 0 -6 -6 -3 -14 3 -7 -1 -20
-8 -27 -7 -8 -14 -21 -16 -29 -5 -23 -29 -43 -41 -35 -16 9 -3 25 14 18 8 -3
15 -1 16 3 0 5 2 19 5 32 3 16 0 21 -8 16 -7 -4 -8 -3 -4 5 4 6 12 9 17 6 13
-9 11 2 -6 35 -16 31 -29 41 -19 16 3 -8 0 -17 -5 -21 -6 -3 -9 -10 -6 -15 8
-13 -13 -50 -27 -50 -7 0 -9 21 -6 65 4 50 16 87 48 153 24 48 52 123 64 167
l21 80 60 22 c52 19 56 22 28 22 -37 1 -84 -15 -95 -32 -5 -8 -12 -7 -25 4
-151 126 -144 119 -142 168 1 25 -2 62 -6 81 l-9 35 -7 -40 c-4 -22 -8 -62 -8
-88 -1 -61 -25 -86 -125 -133 -70 -32 -77 -38 -114 -101 -56 -96 -120 -201
-152 -248 -15 -22 -40 -65 -55 -95 -30 -61 -85 -124 -128 -146 -36 -19 -159
-62 -217 -75 -83 -19 -180 -50 -180 -58 0 -16 159 12 260 46 158 54 192 73
230 135 18 29 55 83 83 120 43 57 54 65 67 55 13 -10 13 -10 2 5 -12 15 -6 31
51 125 36 59 74 126 85 148 16 33 28 42 64 52 23 6 51 15 60 18 18 7 18 3 3
-57 -5 -18 -3 -28 4 -28 6 0 11 7 11 16 0 8 4 13 9 10 4 -3 6 7 3 22 -4 27 -4
27 26 -8 17 -19 31 -41 32 -48 1 -31 -39 -66 -119 -107 -92 -46 -129 -79 -183
-162 -26 -40 -37 -50 -46 -41 -16 16 -26 3 -18 -25 9 -36 63 -84 134 -119 53
-26 69 -30 112 -25 27 3 61 13 75 23 14 9 36 14 50 12 13 -3 22 -1 19 3 -10
16 21 9 43 -10 l22 -18 -24 -59 c-14 -33 -25 -67 -25 -76 0 -24 -41 -43 -133
-62 -42 -8 -115 -31 -162 -51 -46 -19 -117 -42 -157 -51 -40 -8 -104 -25 -141
-35 -72 -21 -64 -22 -384 17 -47 6 -57 4 -94 -22 -23 -16 -76 -66 -118 -111
l-77 -83 -21 37 c-27 49 -94 335 -133 566 l-11 69 75 82 c55 60 85 86 113 94
57 17 267 141 563 332 58 37 155 94 215 125 61 32 153 84 206 116 136 82 165
92 212 68z m135 -420 c21 -13 22 -17 11 -46 -6 -18 -15 -31 -19 -28 -4 3 -6
-5 -2 -17 6 -26 14 -31 -95 56 -40 32 -73 63 -73 70 0 6 11 24 25 39 14 15 23
27 20 27 -3 0 -4 4 0 9 3 6 29 -14 58 -43 29 -28 62 -59 75 -67z m322 -51 c23
-31 23 -32 5 -77 -26 -68 -54 -170 -60 -222 -5 -37 -16 -58 -60 -110 -30 -35
-60 -63 -66 -61 -6 1 -8 -2 -5 -7 3 -5 -12 -31 -33 -57 -21 -27 -44 -60 -51
-73 -12 -24 -13 -24 -27 -6 -13 19 -14 18 -38 -7 -14 -15 -25 -32 -25 -37 0
-5 -4 -12 -8 -15 -14 -8 5 98 23 134 9 18 23 53 31 79 15 52 82 164 93 157 4
-3 8 0 8 7 0 7 15 35 35 62 19 28 42 69 51 93 20 55 86 172 96 172 4 0 18 -14
31 -32z m-390 -59 c0 -5 -9 -9 -20 -9 -19 0 -27 20 -13 33 7 8 33 -11 33 -24z
m-31 -122 c-4 -23 -10 -85 -13 -137 l-5 -95 -33 -7 c-18 -5 -51 -18 -73 -29
l-41 -21 -72 36 c-69 35 -83 48 -63 60 5 3 11 -3 14 -14 3 -11 10 -20 16 -20
8 0 9 6 1 19 -16 30 -12 38 6 13 11 -16 22 -21 37 -17 21 6 22 6 3 -9 -15 -12
-16 -16 -5 -16 8 0 20 5 27 12 9 9 15 9 25 -1 10 -11 9 -13 -1 -7 -14 8 -12
-28 3 -41 4 -5 5 -3 1 4 -3 6 4 19 16 27 12 9 18 16 13 16 -6 0 -3 5 5 10 12
8 10 10 -10 8 -23 -3 -25 1 -30 43 -6 52 -3 69 12 69 13 0 38 26 38 41 0 7
-11 2 -25 -11 -14 -13 -25 -18 -25 -11 0 7 -5 9 -10 6 -6 -4 -8 -10 -5 -15 3
-4 -3 -6 -14 -3 -10 3 -22 0 -25 -6 -4 -6 -17 -11 -29 -11 -29 0 -11 15 38 30
22 7 42 13 45 14 3 0 10 4 15 8 12 11 158 95 166 97 4 1 3 -18 -2 -42z m1949
-62 c47 -34 52 -45 19 -45 -17 0 -34 14 -57 46 -35 49 -31 49 38 -1z m-1557
-265 c-17 -44 -31 -88 -31 -98 0 -11 -5 -34 -11 -52 -10 -27 -13 -30 -21 -16
-8 14 -12 15 -24 5 -19 -15 -44 -74 -44 -102 0 -20 0 -20 -15 -1 -16 21 -19
117 -6 196 6 37 20 61 70 120 72 84 76 91 87 178 l8 65 9 -108 c8 -106 8 -109
-22 -187z m62 198 c4 -29 3 -48 -3 -48 -6 0 -10 23 -10 52 0 62 5 60 13 -4z
m1777 34 c0 -5 -38 -15 -85 -22 -95 -15 -98 -15 -103 -2 -1 4 30 13 70 19 100
14 118 14 118 5z m-2440 -22 c0 -5 -4 -10 -10 -10 -5 0 -10 5 -10 10 0 6 5 10
10 10 6 0 10 -4 10 -10z m-53 -20 c1 -16 -1 -17 -12 -7 -11 10 -8 19 10 27 1
0 1 -9 2 -20z m746 -235 c-4 -27 -6 -53 -5 -57 1 -5 -3 -8 -8 -8 -12 0 -70 28
-70 34 0 2 11 28 24 57 13 30 27 77 30 104 2 28 6 52 6 55 8 21 28 -145 23
-185z m787 146 c0 -9 -28 -15 -132 -26 -34 -4 -67 -14 -82 -26 -32 -26 -34
-10 -3 19 15 15 45 25 83 31 82 12 134 13 134 2z m-2973 -17 c-3 -3 -12 -4
-19 -1 -8 3 -5 6 6 6 11 1 17 -2 13 -5z m123 2 c0 -2 -8 -10 -17 -17 -16 -13
-17 -12 -4 4 13 16 21 21 21 13z m2589 -22 c-20 -25 -15 -122 15 -255 25 -116
46 -241 46 -279 0 -20 -4 -20 -144 -18 l-143 3 -27 127 c-39 189 -33 181 -148
192 -80 8 -90 13 -77 39 11 20 8 85 -7 154 l-6 32 83 -30 c75 -28 92 -31 164
-26 46 3 104 14 136 26 31 12 63 20 70 18 8 -2 10 -2 5 1 -5 3 2 11 15 18 32
18 34 17 18 -2z m-2919 -9 c0 -25 -235 -59 -351 -50 -58 5 -94 3 -110 -5 -23
-11 -23 -10 -5 4 15 12 45 16 125 16 68 1 135 7 186 19 76 18 155 26 155 16z
m228 -87 c-43 -49 -55 -57 -75 -52 -20 5 -34 -2 -74 -42 -27 -26 -52 -45 -56
-41 -3 4 2 14 13 23 18 14 18 15 -4 4 -16 -8 -21 -17 -17 -29 7 -22 -29 -58
-41 -40 -4 7 0 17 8 23 13 10 14 15 3 29 -13 18 -41 23 -47 8 -5 -13 -48 -24
-48 -12 0 6 6 11 14 11 7 0 19 7 26 15 8 9 9 15 2 15 -6 0 -14 -4 -17 -10 -3
-5 -11 -10 -16 -10 -6 0 -7 5 -4 10 3 6 0 11 -7 11 -7 1 -24 3 -38 4 -30 3
-53 -13 -46 -31 3 -7 2 -15 -2 -18 -4 -3 -8 4 -9 14 -1 10 11 30 27 44 27 23
31 24 45 10 9 -9 19 -14 22 -10 4 3 -1 12 -10 19 -13 9 -14 16 -6 27 9 13 10
12 5 -3 -3 -11 -2 -16 4 -12 6 4 9 14 8 23 -3 14 7 17 57 17 33 1 53 0 43 -2
-25 -6 -29 -88 -5 -103 15 -9 23 -8 40 7 32 27 35 32 31 66 -2 20 -1 27 5 19
4 -7 28 -16 52 -18 24 -3 47 -8 51 -10 4 -3 8 -3 8 1 0 3 -10 9 -22 14 l-22 8
22 5 c12 4 20 2 16 -3 -3 -5 2 -9 10 -9 9 0 16 5 16 11 0 5 5 7 10 4 9 -6 14
8 11 28 0 4 6 7 15 7 14 0 15 2 3 18 -13 15 -12 16 3 4 10 -8 19 -9 22 -3 3 5
0 11 -6 14 -7 3 -3 4 8 4 19 -1 16 -8 -28 -59z m-78 36 c-35 -8 -70 -12 -77
-9 -7 2 -20 2 -29 -2 -13 -5 -13 -7 -2 -14 9 -6 7 -9 -9 -9 -13 0 -23 5 -23
11 0 7 -7 8 -17 4 -10 -4 -37 -7 -59 -6 -39 2 -45 -2 -113 -75 -39 -42 -79
-89 -88 -105 -10 -16 -21 -29 -26 -29 -4 0 -5 -4 -2 -10 4 -7 -3 -7 -20 0 -15
6 -31 8 -35 5 -5 -3 -26 4 -47 15 -21 11 -55 25 -76 31 -34 9 -37 12 -31 37
10 39 40 96 60 113 12 10 45 14 113 14 53 0 152 6 221 14 315 33 356 36 260
15z m4506 -370 c186 -185 587 -625 764 -841 88 -106 131 -172 294 -448 l83
-140 -41 -8 c-23 -5 -178 -9 -346 -10 -168 -1 -307 -4 -310 -7 -3 -3 -26 -19
-52 -37 l-47 -32 -29 24 c-16 13 -41 43 -57 67 -105 155 -167 228 -222 264
-32 20 -59 37 -61 39 -1 1 -22 98 -46 216 -59 288 -115 500 -173 656 -8 23
-12 47 -8 54 5 7 4 10 -1 6 -6 -3 -15 7 -21 24 -6 16 -7 27 -2 24 5 -4 6 1 3
9 -3 9 -10 16 -15 16 -4 0 -5 7 -2 17 4 11 3 14 -5 9 -7 -4 -12 -1 -12 7 0 8
-16 46 -35 83 -32 63 -36 81 -47 204 -6 75 -9 144 -5 154 6 15 23 4 105 -72
53 -49 183 -175 288 -278z m-4533 339 c-7 -2 -19 -2 -25 0 -7 3 -2 5 12 5 14
0 19 -2 13 -5z m-634 -97 c-9 -50 -18 -65 -66 -114 l-55 -57 48 90 c61 115 78
144 81 141 2 -1 -2 -28 -8 -60z m5013 40 c150 -57 485 -171 618 -211 80 -23
178 -55 217 -69 40 -14 94 -26 120 -26 27 0 107 -7 178 -14 72 -8 180 -17 240
-21 129 -8 145 -11 145 -32 0 -12 -16 -14 -107 -9 -60 3 -189 8 -288 12 -202
6 -223 10 -525 95 -305 86 -305 86 -413 140 -53 27 -111 49 -127 49 -44 0 -71
14 -121 64 -43 42 -45 46 -23 46 13 0 52 -11 86 -24z m-1055 -23 c-3 -10 -5
-4 -5 12 0 17 2 24 5 18 2 -7 2 -21 0 -30z m-1421 -47 c-9 -15 -24 -25 -34
-25 -16 1 -16 2 1 6 9 2 17 9 17 14 0 6 -5 7 -12 3 -12 -7 -5 8 15 34 19 25
31 -5 13 -32z m1991 -8 c-3 -7 -5 -2 -5 12 0 14 2 19 5 13 2 -7 2 -19 0 -25z
m-3783 -433 c81 -264 103 -317 212 -502 34 -59 52 -98 48 -110 -4 -13 -3 -14
4 -5 7 10 16 2 37 -34 24 -41 26 -49 13 -58 -12 -8 -13 -15 -4 -28 8 -13 7
-21 -3 -30 -11 -11 -12 -9 -6 10 4 15 2 24 -9 28 -14 5 -14 8 1 22 14 15 14
17 -5 25 -11 5 -22 18 -25 28 -3 11 -10 19 -16 19 -14 0 -14 -27 -1 -35 6 -3
10 -17 10 -31 0 -17 -5 -24 -20 -24 -22 0 -26 10 -9 27 7 7 8 19 4 30 -5 10
-7 23 -5 28 2 6 4 24 5 40 1 28 -1 31 -27 29 -19 -1 -36 6 -49 19 -16 17 -19
18 -14 5 6 -16 1 -18 -39 -18 l-46 0 0 36 c0 25 7 43 21 55 19 16 21 26 16 69
-6 54 -2 64 13 28 l9 -23 0 22 c1 12 -3 25 -9 28 -5 3 -10 16 -10 28 -1 21 -1
21 -15 -3 -14 -24 -14 -23 -10 20 4 34 3 41 -6 30 -9 -12 -10 -10 -5 9 3 16
-3 37 -15 58 -11 18 -18 37 -15 42 3 5 -1 11 -9 15 -8 3 -15 10 -15 16 0 6 5
8 10 5 12 -7 12 -3 4 20 -5 12 -11 7 -24 -23 -13 -28 -27 -41 -51 -50 -33 -11
-33 -11 14 -7 40 4 47 2 47 -14 0 -23 -41 -45 -77 -39 -28 4 -30 2 -32 -39 -2
-40 0 -43 24 -43 23 0 25 -4 25 -40 l0 -40 40 0 40 0 0 -80 c0 -79 0 -80 -25
-80 -22 0 -25 4 -25 40 0 36 -2 40 -25 40 -22 0 -25 4 -25 40 0 43 0 44 -72
40 -38 -2 -38 -2 -38 39 0 23 -4 41 -9 41 -5 0 -23 13 -41 30 -18 16 -37 27
-44 23 -6 -3 -3 3 7 14 9 11 14 23 10 26 -3 4 -2 7 4 7 5 0 13 -3 17 -7 4 -5
19 -8 33 -8 21 -1 23 1 8 11 -12 9 -13 13 -3 18 7 3 2 3 -12 -1 -23 -5 -24 -5
-10 13 14 18 13 18 -10 -1 -59 -46 -68 -57 -63 -75 3 -12 11 -16 20 -13 13 5
13 3 2 -15 -10 -16 -10 -26 -1 -47 7 -14 12 -35 12 -45 0 -14 5 -18 18 -14 12
4 13 3 4 -3 -7 -6 -10 -17 -6 -27 5 -14 9 -15 15 -4 5 8 6 -1 2 -21 -4 -25 -3
-32 5 -27 8 5 12 -3 12 -25 0 -24 3 -29 13 -21 10 8 13 6 13 -8 0 -10 -5 -16
-10 -13 -5 3 -6 1 -2 -5 4 -7 14 -12 23 -12 13 0 13 -3 3 -15 -8 -9 -8 -15 -2
-15 6 0 16 -16 22 -36 11 -32 13 -34 26 -17 19 25 17 46 -6 70 -20 22 -20 22
0 28 20 6 28 35 10 35 -5 0 -10 14 -10 30 0 43 27 39 35 -4 10 -49 3 -72 -20
-68 -13 2 -16 0 -8 -5 20 -14 26 -60 10 -83 -16 -23 -12 -64 6 -53 6 4 8 0 4
-10 -4 -10 5 -28 24 -48 16 -18 28 -38 25 -45 -3 -8 2 -11 12 -9 13 2 17 -4
17 -29 -1 -17 2 -33 6 -36 3 -3 13 -18 22 -35 10 -19 16 -24 17 -13 0 9 -4 20
-10 23 -5 3 -10 12 -10 18 0 7 7 3 16 -8 8 -11 12 -30 9 -42 -4 -18 -2 -21 12
-16 10 4 14 2 9 -5 -3 -6 -2 -13 4 -17 6 -4 8 -10 5 -15 -3 -4 2 -10 10 -14 8
-3 15 -14 15 -24 0 -17 7 -19 48 -16 28 1 38 0 23 -4 -22 -7 -21 -8 12 -20 24
-8 36 -20 39 -36 4 -17 1 -23 -9 -19 -7 3 -11 9 -8 13 6 9 -21 33 -41 36 -7 1
0 -11 16 -28 17 -16 28 -33 25 -38 -3 -5 -1 -11 4 -15 6 -3 8 -13 5 -23 -5
-14 -3 -14 10 2 9 11 16 16 16 11 0 -5 -7 -16 -16 -26 -14 -16 -12 -21 25 -59
23 -23 41 -37 41 -30 0 6 -13 24 -30 38 -16 15 -30 31 -30 36 0 5 7 1 16 -10
11 -13 17 -15 20 -6 3 6 10 12 16 12 6 0 6 -6 -2 -15 -10 -12 -10 -15 4 -15 9
0 16 5 16 10 0 6 4 10 9 10 5 0 9 -12 9 -26 0 -18 -3 -22 -9 -13 -5 8 -9 12
-10 9 -8 -52 -7 -61 7 -49 12 10 13 9 9 -3 -3 -8 1 -21 10 -28 8 -7 15 -19 15
-27 0 -8 4 -12 9 -8 5 3 13 0 17 -6 4 -8 3 -9 -4 -5 -7 4 -12 3 -12 -2 0 -16
13 -22 26 -11 9 8 11 5 7 -11 -4 -16 -2 -19 11 -14 9 3 13 11 9 17 -3 5 -2 8
3 5 5 -3 25 12 46 33 32 35 34 40 20 50 -13 8 -10 9 16 5 20 -4 31 -2 27 4 -3
6 -13 10 -21 10 -8 0 -14 9 -14 21 0 11 5 17 10 14 6 -4 8 -11 5 -16 -4 -5 -4
-9 -1 -9 2 0 11 -3 20 -6 10 -4 16 -1 16 9 0 8 9 17 21 20 13 4 18 10 13 18
-4 8 -3 10 4 5 13 -8 16 3 4 20 -9 14 -71 24 -78 13 -2 -5 -11 -6 -19 -2 -17
6 -21 83 -5 83 6 0 10 9 10 20 0 21 39 67 53 62 4 -1 3 7 -3 19 -7 13 -17 18
-27 15 -11 -5 -14 -2 -9 11 4 10 3 14 -1 9 -4 -4 -8 -18 -8 -29 0 -17 -7 -23
-32 -25 -31 -3 -33 -6 -33 -43 0 -28 4 -39 15 -39 11 0 15 -11 15 -40 0 -36
-3 -40 -24 -40 -13 0 -26 -6 -29 -12 -3 -10 -7 -10 -20 1 -9 7 -22 11 -29 8
-10 -3 -12 7 -9 39 2 28 -1 44 -8 44 -6 0 -11 -7 -11 -15 0 -11 -11 -15 -40
-15 -37 0 -39 2 -46 35 -3 19 -12 39 -20 46 -17 14 -18 30 -1 24 9 -4 11 7 9
40 -3 28 0 45 7 45 7 0 11 28 11 80 0 79 0 80 25 80 23 0 25 -4 25 -40 0 -36
3 -40 25 -40 23 0 25 -4 25 -40 0 -38 2 -40 30 -40 17 0 31 6 32 13 0 6 2 17
2 22 1 6 6 18 12 28 8 14 10 11 10 -18 0 -19 -6 -37 -13 -39 -15 -6 -18 -46
-4 -46 5 0 11 10 13 22 3 21 32 33 52 20 20 -12 35 -10 29 5 -5 12 -7 12 -14
1 -5 -8 -9 -9 -9 -2 0 7 -9 14 -20 17 -11 3 -20 11 -20 17 0 10 3 10 15 0 21
-17 19 -3 -5 30 -11 15 -17 30 -14 33 3 3 0 8 -7 13 -7 4 -10 3 -6 -3 4 -6 -1
-17 -10 -24 -14 -12 -15 -12 -9 0 12 18 -14 93 -28 83 -6 -5 -22 -9 -35 -10
-21 -1 -22 1 -9 16 22 25 29 50 15 55 -9 3 -9 8 -1 16 8 9 39 -34 118 -164 59
-96 112 -177 117 -181 5 -3 9 -10 9 -15 0 -6 -4 -8 -9 -5 -5 4 -7 -3 -4 -14 6
-21 -12 -29 -19 -8 -2 6 -10 8 -16 4 -16 -10 -15 -26 2 -26 8 0 16 -5 18 -12
3 -7 11 2 18 19 11 24 17 29 27 21 7 -6 13 -15 13 -20 0 -5 9 -18 20 -30 11
-12 20 -26 20 -32 0 -9 -226 -229 -260 -253 -16 -11 -23 -7 -54 36 -20 27 -36
54 -36 62 0 7 -3 10 -6 6 -10 -10 -115 125 -109 140 8 22 -21 68 -64 102 -45
36 -164 218 -156 239 2 7 1 11 -4 8 -7 -5 -56 79 -143 244 -45 85 -92 218
-108 304 -13 69 -5 271 20 521 9 88 10 91 47 120 21 17 56 46 78 66 l39 37 42
-167 c23 -91 58 -220 78 -286z m-258 416 c-4 -5 -13 -8 -21 -5 -17 7 -85 -39
-147 -101 l-48 -46 -56 45 c-31 25 -51 46 -46 46 6 0 18 -7 27 -16 8 -9 22
-13 30 -10 8 3 14 0 12 -6 -1 -7 5 -12 13 -13 8 0 14 -8 14 -18 -2 -14 1 -15
12 -6 8 6 11 16 7 22 -3 6 -1 7 5 3 8 -4 12 0 12 12 0 19 26 49 45 53 21 4 55
23 55 30 0 4 13 10 30 14 16 4 33 11 36 17 4 6 10 6 16 0 6 -6 7 -15 4 -21z
m-181 -11 l20 -25 -22 19 c-16 13 -23 15 -23 6 0 -7 -2 -11 -5 -8 -3 3 -3 13
1 22 4 9 7 16 8 14 1 -2 10 -14 21 -28z m-127 -241 c-39 -43 -74 -76 -78 -74
-5 3 -11 -7 -15 -23 -4 -15 -10 -21 -12 -14 -7 19 -25 14 -19 -5 4 -12 -9 -36
-34 -68 -22 -27 -54 -74 -71 -103 -26 -43 -34 -50 -46 -41 -20 18 -32 1 -35
-52 -2 -27 -8 -46 -15 -46 -7 0 -9 5 -6 11 4 6 -1 4 -11 -4 -11 -8 -14 -16 -7
-18 6 -2 11 -10 11 -17 0 -8 5 -17 11 -21 8 -4 9 1 4 16 -6 18 -4 22 9 17 21
-8 30 10 14 31 -12 15 -11 16 4 4 15 -12 17 -10 21 15 4 28 4 28 6 2 1 -18
-16 -48 -50 -93 -28 -36 -56 -66 -61 -66 -5 0 -7 -4 -4 -9 3 -5 -14 -32 -39
-59 -47 -52 -69 -59 -111 -33 -19 12 -19 12 1 6 15 -4 17 -3 9 5 -14 14 -96
-16 -176 -64 -57 -35 -57 -35 -47 -9 5 14 21 66 35 116 39 140 141 306 392
634 l154 202 119 -81 118 -80 -71 -79z m2332 237 c0 -2 -7 -9 -15 -16 -12 -10
-15 -10 -15 4 0 9 7 16 15 16 8 0 15 -2 15 -4z m2683 -51 c84 -41 155 -66 282
-99 94 -24 217 -58 275 -74 141 -41 192 -49 420 -61 107 -7 236 -14 287 -17
l91 -6 17 -71 c26 -115 43 -309 55 -657 12 -336 4 -1117 -11 -1142 -4 -7 -12
-9 -16 -4 -4 5 -2 11 5 13 19 7 17 157 -3 173 -13 11 -15 5 -13 -41 l1 -54 7
45 c11 63 4 -81 -8 -175 l-9 -70 -1 57 c-2 54 -15 82 -25 56 -3 -8 -6 -6 -6 5
-1 9 3 17 9 17 5 0 9 12 8 27 0 16 2 62 5 103 l6 75 -14 -65 c-15 -65 -29
-240 -20 -240 2 0 9 15 14 33 9 31 9 30 8 -15 -1 -27 -5 -42 -9 -35 -4 7 -7
-5 -5 -25 1 -21 6 -38 10 -38 4 0 5 -16 1 -36 -5 -30 -4 -35 7 -29 11 7 12 6
2 -6 -7 -9 -11 -36 -9 -64 3 -43 10 -56 45 -93 22 -24 41 -47 41 -52 0 -16
-94 90 -96 108 -1 9 -5 62 -8 117 -3 55 -10 125 -16 155 -5 30 -14 102 -19
159 -5 57 -13 107 -18 112 -4 4 -70 18 -145 30 l-137 23 -19 45 c-16 41 -19
43 -24 23 -5 -16 0 -30 12 -42 11 -11 16 -21 12 -24 -4 -2 -71 -5 -149 -5 -97
-1 -159 -7 -195 -18 -29 -8 -69 -16 -88 -17 -32 -2 -39 3 -75 53 -22 31 -41
59 -43 62 -2 4 16 19 40 33 41 24 47 24 128 15 309 -36 339 -37 441 -24 55 7
104 16 107 20 4 4 -10 38 -31 77 -39 71 -39 87 1 88 17 0 15 25 -3 40 -8 6
-23 36 -34 66 -44 116 -152 307 -241 424 -138 180 -481 568 -730 824 -85 88
-148 156 -140 152 8 -4 2 3 -15 16 -16 12 -50 42 -75 65 -40 38 -42 43 -22 43
12 0 73 -25 135 -55z m-4747 1 c-9 -14 -83 -95 -164 -180 -82 -84 -183 -196
-224 -248 -87 -108 -108 -128 -108 -105 0 36 233 310 389 457 113 107 140 126
107 76z m-16 -151 c-37 -414 -38 -464 -10 -581 11 -46 36 -117 54 -157 23 -51
29 -74 20 -74 -7 0 -11 3 -9 7 5 8 -33 92 -45 100 -4 3 -12 19 -19 35 -11 29
-11 29 -6 -10 2 -22 12 -45 20 -52 9 -6 12 -14 7 -17 -5 -3 -22 14 -37 39 -16
24 -33 41 -38 38 -5 -3 -4 -9 3 -13 9 -6 9 -13 -1 -31 -7 -15 -14 -19 -17 -11
-2 6 -10 12 -18 12 -11 0 -10 -4 4 -18 13 -14 20 -16 31 -8 12 9 13 7 8 -7 -4
-11 -3 -16 3 -12 6 3 8 18 5 33 l-5 27 11 -25 c7 -14 26 -57 44 -97 33 -72 78
-149 199 -345 36 -59 63 -114 60 -122 -3 -8 -1 -17 5 -21 7 -4 9 1 5 12 -4 13
0 11 15 -7 43 -50 44 -58 11 -75 -16 -8 -30 -19 -30 -24 0 -4 -46 -48 -103
-97 -56 -49 -129 -114 -162 -144 l-60 -55 38 47 c39 49 40 62 3 30 l-21 -17
19 23 c11 12 26 20 34 17 20 -7 37 6 21 16 -11 6 -9 9 7 9 11 0 29 9 39 20 22
24 9 27 -17 3 -18 -16 -18 -16 -12 0 3 9 9 17 14 17 4 0 20 11 35 25 23 19 32
22 43 12 12 -10 14 -7 8 21 -5 22 -4 32 4 32 7 0 10 -7 6 -15 -3 -8 -2 -15 2
-15 12 0 52 39 52 50 0 6 6 10 13 10 8 0 19 12 26 26 7 16 17 24 25 21 8 -3
17 1 20 9 3 9 1 12 -4 9 -6 -4 -10 -3 -9 2 4 22 -3 31 -20 26 -13 -3 -20 2
-25 21 -3 14 -11 26 -16 26 -13 0 -13 -17 0 -25 6 -4 7 -11 4 -17 -10 -16 -22
21 -19 56 3 20 -8 42 -36 79 -36 48 -43 65 -40 93 1 6 -14 10 -34 9 -39 -2
-41 1 -19 30 16 19 16 19 10 -5 -3 -14 -3 -19 0 -12 5 10 9 10 22 0 13 -11 14
-10 4 9 -17 31 -28 35 -46 17 -19 -18 -22 -2 -4 18 7 7 14 20 16 27 3 12 0 12
-14 0 -16 -13 -17 -12 -12 9 4 12 2 20 -2 17 -5 -3 -10 7 -12 22 -2 16 -8 27
-15 26 -8 -2 -10 4 -6 14 4 10 2 14 -4 10 -13 -8 -25 17 -17 37 3 8 1 17 -5
21 -7 3 -8 0 -5 -9 3 -9 1 -16 -5 -16 -6 0 -11 6 -11 13 0 9 -11 12 -35 9
l-35 -4 0 -79 c0 -64 3 -79 15 -79 11 0 15 -11 15 -40 0 -36 3 -40 25 -40 23
0 25 -4 25 -40 0 -38 2 -40 30 -40 28 0 30 -2 30 -40 l0 -40 40 0 40 0 0 -79
c0 -83 8 -97 48 -85 14 5 15 4 2 -5 -36 -27 -48 -31 -46 -14 0 9 -5 18 -11 20
-7 3 -13 -2 -13 -11 0 -11 -9 -16 -30 -16 -20 0 -30 -5 -30 -15 0 -11 -11 -15
-40 -15 -22 0 -40 -4 -40 -10 0 -5 -16 -10 -36 -10 -46 0 -66 -23 -52 -61 7
-20 15 -27 30 -24 16 4 18 2 7 -11 -6 -8 -9 -17 -5 -21 3 -4 13 3 22 15 8 12
20 22 25 22 5 0 1 -10 -10 -21 -17 -18 -18 -26 -9 -43 23 -44 -20 5 -105 117
-105 139 -165 227 -212 311 -37 67 -65 99 -65 76 0 -9 -3 -10 -13 -1 -8 6 -17
9 -20 6 -4 -3 -5 -2 -3 1 3 3 -4 23 -16 45 -13 26 -20 60 -21 101 -1 93 60
541 73 533 4 -2 5 8 2 23 -3 22 14 48 93 142 103 122 345 383 351 378 2 -2 -1
-49 -6 -103z m1075 60 c131 -22 274 -29 318 -17 20 6 37 8 37 5 0 -3 -19 -40
-43 -82 -23 -42 -51 -92 -61 -113 -14 -26 -25 -35 -39 -32 -13 2 -17 -1 -13
-11 3 -8 1 -17 -4 -20 -5 -3 -7 7 -5 23 2 15 0 34 -5 42 -5 7 -7 -16 -6 -56 2
-45 -2 -76 -10 -89 -12 -17 -14 -8 -14 73 0 85 -1 92 -20 92 -17 0 -20 -7 -20
-40 0 -35 -3 -40 -22 -40 -17 0 -19 3 -10 12 22 22 13 26 -20 9 -31 -14 -33
-19 -29 -58 3 -39 6 -43 29 -43 24 0 25 -1 7 -20 -10 -11 -26 -22 -36 -25 -11
-4 -19 -13 -19 -21 0 -8 -4 -14 -10 -14 -5 0 -10 -18 -10 -40 l0 -40 -40 0
c-38 0 -40 2 -40 30 0 17 -4 30 -10 30 -15 0 -12 16 5 34 8 8 15 23 15 33 0
11 5 24 12 31 16 16 55 16 60 0 3 -8 6 -9 11 -1 3 5 -2 19 -11 29 -26 27 -8
58 50 84 27 12 48 26 48 31 0 9 -123 -51 -128 -63 -2 -4 -30 -19 -63 -34 -33
-15 -56 -31 -52 -37 4 -6 1 -7 -7 -2 -7 4 -16 2 -21 -6 -11 -17 -12 -32 -1
-26 4 3 8 -6 9 -19 1 -13 3 -35 4 -49 1 -14 5 -28 10 -31 5 -3 6 2 3 10 -5 12
0 16 20 16 22 0 26 -4 26 -30 0 -36 -23 -40 -54 -11 -19 18 -22 18 -36 3 -13
-14 -12 -15 3 -9 9 3 19 2 21 -2 3 -5 -5 -8 -17 -8 -41 -1 -46 -3 -42 -22 2
-14 -1 -18 -15 -14 -10 3 -21 0 -24 -6 -4 -6 -1 -9 7 -5 8 3 20 -3 28 -12 13
-16 12 -16 -8 -5 -13 6 -23 7 -23 2 0 -5 6 -12 13 -14 9 -4 9 -6 -1 -6 -7 -1
-15 6 -18 14 -9 22 -46 -4 -38 -27 3 -10 0 -18 -6 -18 -6 0 -9 -3 -7 -7 6 -10
-19 -34 -27 -26 -3 4 -6 -2 -6 -11 0 -17 2 -17 23 -3 19 12 24 13 24 2 0 -8
-5 -13 -10 -12 -5 1 -10 -10 -11 -25 -1 -16 2 -28 6 -28 4 0 8 -7 8 -15 0 -20
40 -95 51 -95 4 0 6 -6 3 -13 -2 -7 0 -24 5 -38 l10 -24 0 28 c1 15 5 27 10
27 6 0 6 -12 0 -32 -12 -43 -11 -51 3 -42 6 4 8 3 5 -2 -3 -6 7 -48 23 -95 28
-82 29 -83 40 -55 8 21 8 38 0 59 -14 41 -11 49 4 13 l13 -29 13 52 c6 28 9
58 6 67 -3 8 -2 12 4 9 6 -3 10 -14 11 -23 0 -9 7 1 15 22 8 21 19 45 25 52 6
7 8 18 4 24 -3 5 -2 10 2 10 5 0 8 16 8 35 -1 19 2 32 7 29 4 -3 8 2 8 10 0 9
6 13 14 10 11 -4 13 0 9 17 -4 15 -3 20 5 15 15 -9 15 -1 1 26 -10 19 -9 20
10 15 18 -4 21 -1 21 25 0 16 4 27 8 24 7 -4 7 10 1 64 -5 40 1 49 33 47 25
-2 33 2 36 18 3 11 9 23 14 26 7 4 6 15 -2 30 -11 23 -10 23 4 5 11 -13 16
-15 16 -6 0 7 2 11 5 9 2 -3 -31 -82 -75 -177 -43 -94 -95 -211 -115 -259 -20
-48 -48 -113 -62 -143 -14 -30 -32 -72 -40 -93 l-16 -39 -35 94 c-19 51 -66
165 -103 253 l-69 160 62 55 c121 106 151 138 143 157 -3 10 -22 79 -41 153
l-34 135 77 72 c43 40 80 72 83 73 3 0 46 -7 95 -15z m590 5 c4 -6 -6 -10 -22
-9 -25 0 -26 1 -8 9 11 5 21 9 22 9 1 1 5 -3 8 -9z m-98 -82 c-3 -8 -6 -5 -6
6 -1 11 2 17 5 13 3 -3 4 -12 1 -19z m-77 -20 c0 -18 -2 -20 -9 -8 -6 8 -7 18
-5 22 9 14 14 9 14 -14z m60 2 c0 -5 -5 -10 -11 -10 -5 0 -7 5 -4 10 3 6 8 10
11 10 2 0 4 -4 4 -10z m-80 -157 c-11 -17 -11 -17 -6 0 3 10 6 24 7 30 0 9 2
9 5 0 3 -7 0 -20 -6 -30z m-445 -61 c-3 -3 -11 0 -18 7 -9 10 -8 11 6 5 10 -3
15 -9 12 -12z m-24 -20 c-7 -2 -18 1 -23 6 -8 8 -4 9 13 5 13 -4 18 -8 10 -11z
m-34 -8 c-3 -3 -12 -4 -19 -1 -8 3 -5 6 6 6 11 1 17 -2 13 -5z m247 -19 c-4
-8 -8 -15 -10 -15 -2 0 -4 7 -4 15 0 8 4 15 10 15 5 0 7 -7 4 -15z m7 -42 c-8
-15 -10 -15 -11 -2 0 17 10 32 18 25 2 -3 -1 -13 -7 -23z m-21 1 c0 -8 -5 -12
-10 -9 -6 4 -8 11 -5 16 9 14 15 11 15 -7z m-1743 -61 c-3 -10 -5 -4 -5 12 0
17 2 24 5 18 2 -7 2 -21 0 -30z m638 -31 c-3 -3 -11 0 -18 7 -9 10 -8 11 6 5
10 -3 15 -9 12 -12z m846 -172 c5 0 9 -18 9 -40 0 -22 -4 -40 -10 -40 -5 0
-10 11 -10 25 0 22 -4 25 -35 25 -31 0 -35 -3 -41 -35 -5 -29 -9 -33 -20 -24
-20 16 -19 89 1 89 8 0 16 8 16 18 1 16 2 16 6 0 6 -23 7 -23 40 10 l28 27 3
-27 c2 -16 8 -28 13 -28z m-553 9 c-3 -8 -7 -3 -11 10 -4 17 -3 21 5 13 5 -5
8 -16 6 -23z m652 -40 c0 -6 -4 -7 -10 -4 -5 3 -10 11 -10 16 0 6 5 7 10 4 6
-3 10 -11 10 -16z m-918 -29 c3 -16 2 -34 -2 -40 -4 -6 -7 7 -8 30 -2 47 4 53
10 10z m895 -2 c-3 -8 -6 -5 -6 6 -1 11 2 17 5 13 3 -3 4 -12 1 -19z m-990
-100 c0 -7 4 -22 7 -33 5 -13 2 -11 -7 5 -9 14 -13 28 -11 32 7 11 11 10 11
-4z m823 2 c0 -5 -2 -10 -4 -10 -3 0 -8 5 -11 10 -3 6 -1 10 4 10 6 0 11 -4
11 -10z m103 -35 c-9 -19 -19 -33 -21 -30 -6 6 21 65 30 65 4 0 0 -16 -9 -35z
m37 20 c0 -8 -4 -15 -10 -15 -5 0 -7 7 -4 15 4 8 8 15 10 15 2 0 4 -7 4 -15z
m-808 -59 c-3 -5 -9 -1 -13 10 -12 31 -10 39 5 19 8 -11 12 -24 8 -29z m268 9
c0 -8 5 -15 10 -15 6 0 10 -18 10 -40 0 -39 -1 -40 -35 -40 -34 0 -35 1 -35
40 0 29 -4 40 -15 40 -8 0 -15 7 -15 15 0 11 11 15 40 15 29 0 40 -4 40 -15z
m517 -7 c-3 -8 -6 -5 -6 6 -1 11 2 17 5 13 3 -3 4 -12 1 -19z m-712 -294 c11
-17 11 -21 -1 -21 -8 0 -14 9 -14 19 0 12 -4 16 -12 12 -6 -4 -8 -3 -5 3 4 6
-8 37 -27 69 -19 33 -49 87 -67 121 -17 35 -36 60 -41 57 -5 -3 -7 -12 -4 -20
10 -26 -3 -14 -20 17 -8 17 -11 28 -6 25 6 -3 13 2 16 11 5 12 31 -26 87 -128
44 -79 87 -153 94 -165z m-251 214 c6 -4 2 -6 -10 -6 -16 2 -19 7 -15 27 4 22
6 23 9 6 2 -11 9 -23 16 -27z m240 -24 c5 -14 4 -15 -9 -4 -17 14 -19 20 -6
20 5 0 12 -7 15 -16z m126 -24 c0 -29 -4 -40 -15 -40 -11 0 -15 11 -15 40 0
29 4 40 15 40 11 0 15 -11 15 -40z m-242 -15 c-3 -3 -9 2 -12 12 -6 14 -5 15
5 6 7 -7 10 -15 7 -18z m149 -12 c-3 -10 -5 -4 -5 12 0 17 2 24 5 18 2 -7 2
-21 0 -30z m-109 -68 c-3 -3 -9 2 -12 12 -6 14 -5 15 5 6 7 -7 10 -15 7 -18z
m-739 -19 c0 -6 -3 -6 -6 2 -4 9 -8 10 -18 2 -11 -9 -12 -7 -8 10 4 16 8 18
19 9 8 -6 14 -17 13 -23z m31 -72 c0 -8 -4 -12 -10 -9 -5 3 -10 13 -10 21 0 8
5 12 10 9 6 -3 10 -13 10 -21z m94 -23 c-6 -6 -24 19 -24 34 1 6 7 1 15 -9 8
-11 12 -22 9 -25z m753 -39 c17 -26 34 -56 38 -67 4 -16 3 -15 -6 3 -13 23
-29 30 -29 11 0 -5 -5 -7 -11 -3 -8 5 -6 10 5 16 15 8 13 14 -15 49 -17 21
-27 39 -22 39 4 0 22 -22 40 -48z m-696 -17 c7 -13 3 -12 -10 5 -11 14 -21 30
-21 35 0 11 14 -7 31 -40z m-22 -9 c-3 -3 -11 5 -18 17 -13 21 -12 21 5 5 10
-10 16 -20 13 -22z m1221 15 c0 -5 -7 -11 -14 -14 -10 -4 -13 -1 -9 9 6 15 23
19 23 5z m-452 -108 c-14 -13 -16 -13 -21 1 -4 10 -1 13 9 9 9 -3 14 1 15 13
0 13 2 14 6 6 3 -8 -1 -21 -9 -29z m79 -19 l16 -26 -79 -76 c-178 -172 -317
-297 -328 -297 -6 0 -10 6 -8 14 2 8 0 21 -3 29 -4 12 -8 12 -21 1 -15 -12
-52 -24 -41 -12 3 2 7 3 9 2 2 -2 26 19 53 46 28 28 96 89 150 137 55 48 127
114 160 147 33 34 63 61 67 61 4 0 15 -12 25 -26z m-172 6 c3 -5 1 -10 -4 -10
-6 0 -11 5 -11 10 0 6 2 10 4 10 3 0 8 -4 11 -10z m-25 -23 c0 -20 -27 -53
-36 -44 -5 4 -2 12 5 17 8 4 11 15 8 24 -4 10 -1 16 8 16 8 0 15 -6 15 -13z
m-35 -67 c-3 -5 -10 -10 -16 -10 -5 0 -9 5 -9 10 0 6 7 10 16 10 8 0 12 -4 9
-10z m372 -150 c45 -54 79 -101 76 -104 -4 -3 -11 3 -17 13 -6 10 -38 51 -71
91 -33 40 -70 85 -81 101 -19 26 -23 27 -34 14 -9 -11 -16 -12 -26 -4 -10 8
-9 14 4 30 17 20 17 20 42 -11 14 -18 62 -76 107 -130z m-138 50 c17 -25 70
-84 118 -133 l86 -87 -39 -39 c-71 -71 -213 -188 -229 -188 -10 0 -12 4 -5 12
6 7 7 21 4 31 -6 17 -5 17 9 -1 15 -19 17 -19 33 -3 17 17 17 18 -5 37 l-23
20 34 -2 c22 -1 32 3 31 11 -2 6 2 12 7 12 14 0 13 -13 -2 -28 -7 -7 -8 -12
-2 -12 18 0 51 42 37 47 -10 4 -9 8 1 19 19 19 32 18 16 -1 -8 -10 -9 -15 -2
-15 6 0 32 22 58 50 25 27 50 47 55 44 14 -9 10 4 -8 25 -9 11 -20 18 -25 15
-4 -3 -8 0 -8 7 0 8 -5 7 -17 -2 -16 -13 -17 -12 -5 2 10 14 10 18 -2 22 -8 3
-17 3 -19 -1 -2 -4 -3 -2 -2 3 5 21 -15 56 -27 49 -7 -4 -10 -4 -6 1 4 4 3 14
-3 22 -9 10 -15 10 -25 2 -11 -9 -14 -8 -15 2 -1 8 -2 19 -4 24 -1 6 -3 16 -3
23 -1 7 -7 10 -12 7 -6 -3 -14 4 -19 17 -6 13 -10 19 -10 15 -1 -4 -10 -3 -21
3 -17 9 -19 8 -13 -7 6 -16 5 -16 -10 -4 -15 12 -17 12 -10 -4 5 -14 3 -17
-10 -12 -11 4 -18 -1 -22 -14 -4 -11 -16 -24 -28 -28 -12 -5 -16 -10 -10 -14
6 -4 26 5 44 20 l33 28 -19 -27 c-11 -16 -30 -31 -42 -34 -13 -3 -21 -9 -18
-13 2 -4 -3 -8 -11 -8 -10 0 -11 4 -4 11 5 5 10 15 10 20 0 6 -11 -1 -25 -16
-14 -15 -25 -31 -25 -37 0 -5 -15 -19 -32 -31 -23 -15 -27 -20 -13 -17 15 3
21 -1 22 -14 2 -17 0 -18 -23 -3 -22 15 -24 15 -24 0 0 -9 -4 -17 -10 -17 -5
-1 -15 -2 -22 -3 -6 0 -13 -7 -16 -15 -3 -8 0 -11 5 -8 6 4 9 -5 7 -22 -3 -29
19 -51 31 -31 4 6 1 10 -6 10 -7 0 -10 2 -7 5 3 3 13 2 23 -1 16 -7 17 -8 1
-19 -14 -11 -15 -14 -1 -25 11 -9 18 -10 29 -1 11 9 13 6 10 -14 -2 -22 1 -25
19 -20 17 5 19 4 7 -4 -13 -9 -13 -11 2 -11 9 0 20 5 23 10 3 6 12 10 18 10 7
0 4 -5 -5 -11 -10 -5 -15 -16 -11 -25 10 -28 -45 7 -119 76 l-67 61 52 46 c29
26 63 58 78 72 14 14 60 59 103 100 72 69 78 72 91 55 17 -23 19 -11 4 19 -16
30 2 11 40 -43z m-386 33 c-6 -17 -5 -17 14 0 11 9 25 17 33 17 7 0 2 -8 -11
-18 -29 -22 -119 -19 -119 4 0 10 13 14 45 14 38 0 43 -2 38 -17z m652 7 c-3
-5 -12 -7 -20 -3 -21 7 -19 13 6 13 11 0 18 -4 14 -10z m16 -41 c-5 -13 -10
-19 -10 -12 -1 15 10 45 15 40 3 -2 0 -15 -5 -28z m-721 -39 c0 -5 -2 -10 -4
-10 -3 0 -8 5 -11 10 -3 6 -1 10 4 10 6 0 11 -4 11 -10z m730 5 c0 -7 -30 -13
-34 -7 -3 4 4 9 15 9 10 1 19 0 19 -2z m-750 -24 c0 -5 -7 -12 -16 -15 -14 -5
-15 -4 -4 9 14 17 20 19 20 6z m3304 -28 c-17 -17 -17 -20 -4 -28 6 -4 9 -1 8
6 -2 6 3 14 10 16 11 4 12 1 3 -15 -17 -32 -30 -35 -37 -8 -7 30 14 75 26 56
5 -8 2 -19 -6 -27z m-2924 -2 c0 -12 -39 -25 -47 -17 -4 3 1 6 10 6 10 0 17 5
17 10 0 6 5 10 10 10 6 0 10 -4 10 -9z m-454 -23 c5 4 6 3 1 -2 -4 -5 3 -20
15 -33 12 -13 17 -23 12 -22 -5 0 -22 17 -39 37 -16 20 -23 31 -14 25 9 -7 20
-9 25 -5z m699 -28 c10 -11 16 -20 13 -20 -3 0 -13 9 -23 20 -10 11 -16 20
-13 20 3 0 13 -9 23 -20z m-275 -50 c22 0 40 5 43 13 4 10 7 10 18 0 7 -7 23
-13 36 -13 20 0 23 -5 24 -42 1 -24 1 -50 0 -58 0 -10 1 -11 5 -2 3 6 13 12
22 12 12 0 13 -3 4 -12 -6 -6 -34 -11 -62 -9 -39 2 -50 -1 -50 -14 0 -11 -11
-15 -40 -15 -38 0 -40 2 -40 30 0 27 -3 30 -30 30 -28 0 -30 2 -30 40 0 33 4
40 19 40 10 0 22 10 26 23 l8 22 4 -22 c4 -19 11 -23 43 -23z m5947 8 c-3 -8
-6 -5 -6 6 -1 11 2 17 5 13 3 -3 4 -12 1 -19z m-5597 -8 c-12 -22 -25 -26 -36
-8 -4 6 -3 8 3 5 6 -4 16 0 23 8 18 21 23 19 10 -5z m-714 -21 c1 -5 2 -14 3
-20 1 -8 5 -8 15 0 10 8 16 9 21 1 3 -5 11 -10 17 -10 6 0 5 7 -3 18 -13 16
-12 16 5 2 17 -14 17 -15 -5 -33 -24 -19 -24 -19 -51 14 -15 18 -25 36 -22 41
6 10 18 2 20 -13z m5899 -17 c39 -6 91 -14 118 -17 55 -7 56 -12 31 -109 -17
-62 -25 -246 -11 -246 4 0 7 -4 7 -10 0 -19 -21 -10 -30 13 -5 12 -9 20 -10
17 -9 -32 -7 -49 5 -54 8 -3 15 -13 15 -23 0 -14 2 -15 9 -5 6 11 10 10 15 -4
10 -26 0 -28 -23 -5 -12 12 -24 21 -27 21 -7 0 -189 153 -368 310 -78 68 -84
76 -63 82 12 4 -17 5 -65 3 -91 -5 -115 5 -55 24 17 5 41 11 51 13 47 7 337 0
401 -10z m-5655 -13 c0 -5 -11 -9 -25 -9 -26 0 -34 15 -12 23 16 5 37 -3 37
-14z m350 5 c0 -2 -7 -4 -15 -4 -8 0 -15 4 -15 10 0 5 7 7 15 4 8 -4 15 -8 15
-10z m-500 -28 c0 -2 -8 -10 -17 -17 -16 -13 -17 -12 -4 4 13 16 21 21 21 13z
m6217 -28 c-3 -8 -6 -5 -6 6 -1 11 2 17 5 13 3 -3 4 -12 1 -19z m-6197 8 c0
-2 -7 -9 -15 -16 -13 -11 -14 -10 -9 4 5 14 24 23 24 12z m118 -16 c-12 -19
-28 -27 -28 -14 0 6 30 33 38 34 1 0 -3 -9 -10 -20z m-114 -31 c-3 -5 -10 -7
-15 -3 -5 3 -7 10 -3 15 3 5 10 7 15 3 5 -3 7 -10 3 -15z m627 3 c-7 -2 -18 1
-23 6 -8 8 -4 9 13 5 13 -4 18 -8 10 -11z m-607 -16 c-4 -9 5 -20 23 -30 16
-8 36 -22 44 -32 13 -16 12 -16 -6 -6 -42 23 -78 59 -71 70 10 17 16 15 10 -2z
m37 -3 c13 -16 12 -17 -3 -4 -10 7 -18 15 -18 17 0 8 8 3 21 -13z m6139 -37
c0 -39 -6 -30 -13 19 -4 27 -3 35 3 25 5 -8 10 -28 10 -44z m-5899 17 c13 -16
12 -17 -3 -4 -17 13 -22 21 -14 21 2 0 10 -8 17 -17z m-33 -11 c3 -11 0 -12
-16 -3 -28 15 -42 14 -42 -3 0 -7 9 -16 20 -19 11 -3 20 -10 20 -16 0 -7 -9
-6 -23 4 -13 8 -27 12 -31 8 -4 -5 -6 1 -4 12 1 11 8 23 13 28 15 11 58 4 63
-11z m670 -19 c-10 -2 -28 -2 -40 0 -13 2 -5 4 17 4 22 1 32 -1 23 -4z m-431
-49 c-3 -3 -12 -4 -19 -1 -8 3 -5 6 6 6 11 1 17 -2 13 -5z m146 -1 c-7 -2 -21
-2 -30 0 -10 3 -4 5 12 5 17 0 24 -2 18 -5z m5304 -45 c-2 -13 -4 -5 -4 17 -1
22 1 32 4 23 2 -10 2 -28 0 -40z m178 -288 c4 -41 4 -72 1 -69 -6 6 -11 33
-22 126 -4 29 -11 50 -15 47 -5 -3 -9 7 -8 23 0 25 1 26 9 8 7 -14 9 3 9 55
-1 111 3 108 11 -10 4 -58 11 -139 15 -180z m-5768 218 c-3 -8 -6 -5 -6 6 -1
11 2 17 5 13 3 -3 4 -12 1 -19z m5603 -29 c0 -21 -4 -39 -9 -39 -5 0 -9 20 -8
44 2 54 17 50 17 -5z m227 9 c-3 -7 -5 -2 -5 12 0 14 2 19 5 13 2 -7 2 -19 0
-25z m-5855 0 c-7 -7 -12 -8 -12 -2 0 14 12 26 19 19 2 -3 -1 -11 -7 -17z
m5448 -58 c0 -5 20 -23 43 -39 24 -16 87 -72 140 -123 82 -79 98 -99 103 -133
7 -36 6 -39 -9 -26 -10 7 -17 23 -17 35 0 14 -3 17 -8 9 -6 -9 -29 3 -80 42
-40 30 -79 58 -87 62 -8 5 -22 29 -30 53 -14 44 -15 45 -9 8 10 -75 -30 -36
-70 67 -15 39 -35 81 -43 95 -14 21 -11 20 25 -9 23 -18 42 -37 42 -41z m297
48 c-3 -8 -6 -5 -6 6 -1 11 2 17 5 13 3 -3 4 -12 1 -19z m-5806 -32 c5 3 9 0
9 -5 0 -6 18 -11 40 -11 29 0 40 -4 40 -15 0 -11 -11 -15 -40 -15 -23 0 -40 5
-40 11 0 6 -7 9 -15 5 -11 -4 -15 2 -14 22 0 15 3 21 6 14 2 -6 9 -10 14 -6z
m5796 -38 c-3 -7 -5 -2 -5 12 0 14 2 19 5 13 2 -7 2 -19 0 -25z m100 -20 c-2
-13 -4 -5 -4 17 -1 22 1 32 4 23 2 -10 2 -28 0 -40z m18 -138 c-2 -50 -5 -94
-9 -97 -4 -4 -6 39 -5 95 1 56 5 100 8 97 4 -2 7 -45 6 -95z m-6053 22 c-12
-15 -26 -36 -31 -47 -5 -11 -19 -29 -32 -40 -24 -22 -20 -11 20 46 15 20 33
46 40 58 8 11 17 18 20 16 2 -3 -5 -18 -17 -33z m-142 -17 c-7 -8 -18 -15 -24
-15 -6 0 -2 7 8 15 25 19 32 19 16 0z m6147 -67 c-3 -8 -6 -5 -6 6 -1 11 2 17
5 13 3 -3 4 -12 1 -19z"/>
<path d="M3910 5185 c0 -5 5 -17 10 -25 5 -8 10 -10 10 -5 0 6 -5 17 -10 25
-5 8 -10 11 -10 5z"/>
<path d="M4494 4975 c0 -14 6 -27 13 -29 9 -4 9 3 1 25 -12 36 -16 37 -14 4z"/>
<path d="M4119 5051 c-3 -33 0 -51 7 -51 7 0 10 17 7 47 -5 63 -10 65 -14 4z"/>
<path d="M3559 4663 c-13 -16 -12 -17 4 -4 16 13 21 21 13 21 -2 0 -10 -8 -17
-17z"/>
<path d="M3935 4634 c-55 -20 -69 -36 -25 -29 77 13 130 27 136 36 8 14 -66 9
-111 -7z"/>
<path d="M3730 4056 c0 -41 48 -74 66 -45 6 11 -42 69 -58 69 -4 0 -8 -11 -8
-24z"/>
<path d="M2820 4024 c0 -11 38 -74 45 -74 2 0 -5 17 -17 38 -27 46 -28 48 -28
36z"/>
<path d="M3849 3744 c-25 -7 -57 -24 -72 -38 -32 -30 -55 -101 -40 -124 16
-27 44 -25 123 8 41 16 93 30 115 30 48 1 114 15 127 28 15 15 -18 70 -55 92
-39 24 -129 26 -198 4z m181 -45 c0 -5 4 -8 9 -5 5 3 16 -5 25 -19 21 -32 8
-32 -23 0 -13 14 -26 23 -30 19 -3 -3 2 -11 12 -18 18 -14 24 -32 7 -21 -5 3
-10 2 -10 -4 0 -5 -21 -13 -47 -17 -27 -3 -81 -17 -122 -30 -88 -29 -90 -29
-86 -6 2 9 4 23 4 29 3 37 261 108 261 72z"/>
<path d="M3971 3681 c-11 -7 -11 -9 0 -14 9 -4 7 -6 -5 -6 -11 -1 -17 -3 -14
-6 12 -12 57 7 51 21 -6 16 -13 17 -32 5z"/>
<path d="M3915 3670 c-3 -5 -3 -10 2 -10 4 0 1 -5 -7 -11 -10 -7 -11 -9 -2 -7
8 2 13 7 12 12 -1 5 4 13 12 17 9 6 9 9 1 9 -6 0 -15 -4 -18 -10z"/>
<path d="M3846 3651 c-4 -5 3 -7 14 -4 23 6 26 13 6 13 -8 0 -17 -4 -20 -9z"/>
<path d="M3815 3640 c3 -5 8 -10 11 -10 2 0 4 5 4 10 0 6 -5 10 -11 10 -5 0
-7 -4 -4 -10z"/>
<path d="M4007 3504 c-15 -8 -50 -18 -78 -21 -56 -7 -69 -17 -40 -33 40 -21
161 26 161 62 0 11 -11 9 -43 -8z"/>
<path d="M3968 3433 c7 -3 16 -2 19 1 4 3 -2 6 -13 5 -11 0 -14 -3 -6 -6z"/>
<path d="M3158 4853 c7 -3 16 -2 19 1 4 3 -2 6 -13 5 -11 0 -14 -3 -6 -6z"/>
<path d="M4830 4740 c-9 -6 -10 -10 -3 -10 6 0 15 5 18 10 8 12 4 12 -15 0z"/>
<path d="M2570 4306 c0 -2 7 -9 15 -16 9 -7 15 -8 15 -2 0 5 -7 12 -15 16 -8
3 -15 4 -15 2z"/>
<path d="M2758 3893 c7 -3 16 -2 19 1 4 3 -2 6 -13 5 -11 0 -14 -3 -6 -6z"/>
<path d="M2732 4041 c2 -7 7 -12 11 -12 12 1 9 15 -3 20 -7 2 -11 -2 -8 -8z"/>
<path d="M2940 2900 c-9 -6 -10 -10 -3 -10 6 0 15 5 18 10 8 12 4 12 -15 0z"/>
<path d="M1910 2816 c0 -8 18 -23 41 -32 28 -13 39 -23 36 -35 -5 -19 10 -49
23 -49 6 0 10 16 10 35 0 29 -6 40 -42 65 -45 33 -68 38 -68 16z"/>
<path d="M1926 2618 c3 -5 10 -6 15 -3 13 9 11 12 -6 12 -8 0 -12 -4 -9 -9z"/>
<path d="M1864 2528 l-19 -23 23 19 c21 18 27 26 19 26 -2 0 -12 -10 -23 -22z"/>
<path d="M3329 3023 c-13 -16 -12 -17 4 -4 16 13 21 21 13 21 -2 0 -10 -8 -17
-17z"/>
<path d="M3286 3017 c3 -10 9 -15 12 -12 3 3 0 11 -7 18 -10 9 -11 8 -5 -6z"/>
<path d="M2989 3234 c-43 -23 -46 -28 -40 -52 6 -23 13 -27 49 -30 39 -3 42
-1 42 21 0 14 3 39 6 56 8 37 3 37 -57 5z m37 1 c-11 -8 -25 -15 -30 -15 -6 1
0 7 14 15 32 19 40 18 16 0z m-28 -32 c-10 -2 -26 -2 -35 0 -10 3 -2 5 17 5
19 0 27 -2 18 -5z"/>
<path d="M2925 3149 c-4 -6 -17 -14 -29 -19 -16 -7 -11 -9 21 -7 24 1 43 3 43
4 0 1 -3 8 -6 17 -7 18 -20 21 -29 5z"/>
<path d="M2970 3080 c0 -25 -5 -40 -12 -40 -9 0 -8 -4 2 -10 14 -9 7 -14 -13
-11 -4 1 -18 -8 -30 -20 -24 -24 -24 -24 51 11 51 23 52 25 52 67 0 55 -18 56
-22 1 -2 -23 -8 -43 -16 -44 -7 -1 -8 0 -2 3 13 6 13 83 0 83 -5 0 -10 -18
-10 -40z"/>
<path d="M1229 2823 l-24 -28 28 24 c25 23 32 31 24 31 -2 0 -14 -12 -28 -27z"/>
<path d="M5759 2565 c12 -16 71 -82 131 -146 132 -141 261 -284 488 -542 96
-108 176 -197 180 -197 3 0 -4 10 -15 23 -11 12 -120 138 -242 280 -190 219
-420 470 -534 582 l-30 30 22 -30z"/>
<path d="M6570 1656 c0 -2 8 -10 18 -17 15 -13 16 -12 3 4 -13 16 -21 21 -21
13z"/>
<path d="M6642 1558 c8 -13 50 -84 93 -158 75 -131 115 -191 80 -120 -28 56
-176 300 -182 300 -3 0 1 -10 9 -22z"/>
<path d="M6680 1150 l-135 -6 162 -2 c99 -1 164 2 168 8 4 6 -7 9 -27 8 -18
-1 -94 -5 -168 -8z"/>
<path d="M6211 1122 c-19 -9 -41 -28 -50 -42 l-15 -25 24 21 c43 37 73 48 150
54 l75 7 -75 1 c-54 2 -85 -3 -109 -16z"/>
<path d="M1198 2133 c7 -3 16 -2 19 1 4 3 -2 6 -13 5 -11 0 -14 -3 -6 -6z"/>
<path d="M1273 2130 c2 -10 18 -15 48 -16 44 -1 44 -1 4 3 -22 3 -44 10 -48
16 -6 8 -7 7 -4 -3z"/>
<path d="M1215 2110 c-3 -5 1 -10 10 -10 9 0 13 5 10 10 -3 6 -8 10 -10 10 -2
0 -7 -4 -10 -10z"/>
<path d="M1313 2093 c9 -2 25 -2 35 0 9 3 1 5 -18 5 -19 0 -27 -2 -17 -5z"/>
<path d="M1524 1900 c0 -13 4 -16 10 -10 7 7 7 13 0 20 -6 6 -10 3 -10 -10z"/>
<path d="M1527 1842 c-3 -15 -2 -29 2 -32 5 -3 13 -14 19 -25 6 -11 19 -21 30
-22 22 -2 20 19 -5 67 -13 25 -13 25 -13 2 0 -13 -4 -21 -9 -18 -5 3 -7 15 -4
25 3 10 0 21 -5 25 -5 3 -12 -7 -15 -22z m53 -52 c0 -5 -2 -10 -4 -10 -3 0 -8
5 -11 10 -3 6 -1 10 4 10 6 0 11 -4 11 -10z"/>
<path d="M1716 1554 c-9 -23 -2 -28 13 -10 7 8 8 17 3 20 -6 3 -13 -1 -16 -10z"/>
<path d="M1600 1321 c0 -22 -3 -46 -6 -55 -3 -9 -1 -16 5 -16 6 0 11 7 11 15
0 8 5 15 10 15 6 0 10 18 10 40 0 29 -4 40 -15 40 -11 0 -15 -11 -15 -39z"/>
<path d="M1973 1166 c26 -20 20 -30 -8 -12 -30 20 -31 20 -39 0 -8 -20 13 -49
37 -50 26 -2 20 13 -8 20 -24 6 -36 26 -15 26 6 0 10 -4 10 -10 0 -14 47 -13
56 2 4 6 -1 17 -11 25 -24 17 -46 17 -22 -1z"/>
<path d="M965 2680 c-3 -5 -1 -10 4 -10 6 0 11 5 11 10 0 6 -2 10 -4 10 -3 0
-8 -4 -11 -10z"/>
<path d="M805 2590 c-3 -5 -3 -10 2 -10 4 0 0 -5 -9 -11 -10 -5 -15 -16 -11
-24 3 -10 0 -14 -8 -12 -8 2 -11 2 -6 0 13 -8 7 -25 -7 -20 -8 3 -24 -6 -37
-21 l-24 -27 29 25 c24 20 28 21 23 7 -4 -10 -7 -23 -7 -28 0 -6 -5 -7 -10 -4
-6 3 -13 -1 -16 -10 -5 -12 -9 -13 -14 -5 -5 8 -15 2 -29 -19 -15 -21 -18 -31
-9 -31 10 0 10 -2 -1 -9 -8 -5 -10 -14 -6 -21 6 -9 4 -11 -5 -5 -10 6 -12 4
-6 -11 4 -10 4 -15 0 -11 -4 4 -13 2 -21 -4 -19 -16 -16 1 4 23 9 10 14 20 11
23 -3 3 -13 -6 -22 -20 -15 -22 -15 -29 -4 -43 11 -13 11 -14 -1 -8 -10 7 -12
3 -6 -15 4 -16 3 -19 -3 -11 -12 18 -35 -9 -26 -32 4 -9 3 -16 -2 -14 -5 2
-10 -1 -12 -7 -2 -5 -10 -18 -19 -27 -10 -12 -12 -22 -5 -34 8 -14 10 -13 16
11 4 16 33 60 66 99 50 62 58 76 54 105 -4 33 -4 34 16 16 11 -10 20 -13 20
-7 0 6 -8 15 -17 21 -10 5 -15 13 -11 16 4 4 13 3 20 -1 7 -5 18 -9 23 -10 12
-1 55 36 55 48 0 5 14 22 31 39 36 35 42 59 20 76 -20 15 -28 16 -36 3z m29
-9 c3 -5 0 -11 -7 -14 -8 -3 -14 1 -14 9 0 16 13 19 21 5z m-6 -50 c-13 -15
-26 -27 -30 -25 -4 3 -9 -4 -12 -13 -4 -10 -15 -29 -25 -42 -16 -20 -19 -21
-24 -7 -4 10 -3 15 2 12 11 -7 33 18 24 27 -3 4 -2 7 4 7 5 0 15 12 21 26 7
14 17 22 22 19 6 -3 13 1 16 9 3 9 11 16 16 16 5 0 -1 -13 -14 -29z"/>
<path d="M579 2303 c-13 -16 -12 -17 4 -4 9 7 17 15 17 17 0 8 -8 3 -21 -13z"/>
<path d="M550 2260 c-6 -11 -8 -20 -6 -20 3 0 10 9 16 20 6 11 8 20 6 20 -3 0
-10 -9 -16 -20z"/>
<path d="M508 2192 c-8 -15 -21 -44 -28 -66 -8 -24 -15 -34 -20 -26 -5 8 -10
8 -14 2 -9 -15 21 -23 32 -9 6 7 14 26 17 42 4 17 14 41 22 53 8 13 13 25 11
28 -2 2 -11 -9 -20 -24z"/>
<path d="M426 2064 c-4 -9 -4 -19 -1 -22 2 -3 7 3 11 12 4 9 4 19 1 22 -2 3
-7 -3 -11 -12z"/>
<path d="M381 2004 c-22 -53 -48 -94 -55 -87 -4 4 -4 -1 0 -11 5 -14 4 -17 -5
-11 -10 6 -11 3 -2 -13 8 -15 8 -23 -1 -28 -6 -4 -8 -3 -5 3 4 6 0 13 -8 16
-12 5 -12 2 -3 -18 12 -27 28 -33 28 -12 0 9 2 9 8 0 11 -17 82 68 82 97 0 13
5 20 12 18 17 -6 51 39 44 57 -9 25 -36 18 -36 -10 0 -32 -11 -32 -31 1 l-16
26 -12 -28z m29 -14 c13 -24 -6 -72 -20 -50 -6 9 -10 7 -14 -7 -4 -11 -16 -29
-27 -39 -18 -16 -19 -16 -13 -1 3 9 10 17 16 17 5 0 7 4 4 9 -3 5 3 20 14 34
11 14 20 32 20 41 0 22 7 20 20 -4z m60 6 c0 -2 -7 -9 -15 -16 -13 -11 -14
-10 -9 4 5 14 24 23 24 12z m-70 -86 c0 -5 -2 -10 -4 -10 -3 0 -8 5 -11 10 -3
6 -1 10 4 10 6 0 11 -4 11 -10z"/>
<path d="M5830 2596 c0 -2 8 -10 18 -17 15 -13 16 -12 3 4 -13 16 -21 21 -21
13z"/>
<path d="M6715 880 c-3 -6 1 -7 9 -4 18 7 21 14 7 14 -6 0 -13 -4 -16 -10z"/>
<path d="M7221 844 c0 -11 3 -14 6 -6 3 7 2 16 -1 19 -3 4 -6 -2 -5 -13z"/>
<path d="M7241 844 c0 -11 3 -14 6 -6 3 7 2 16 -1 19 -3 4 -6 -2 -5 -13z"/>
<path d="M7236 804 c-9 -23 -7 -52 3 -59 6 -3 9 12 8 35 -1 45 -2 47 -11 24z"/>
<path d="M1010 2396 c0 -66 -5 -119 -15 -146 -8 -23 -15 -55 -15 -71 0 -15 -7
-54 -15 -86 -10 -37 -12 -59 -5 -61 5 -2 10 -16 10 -31 0 -32 29 -135 36 -128
3 3 -2 31 -10 63 -13 52 -14 69 -1 139 30 173 45 425 25 425 -6 0 -10 -41 -10
-104z"/>
<path d="M915 1860 c-13 -5 -14 -9 -5 -9 8 0 24 4 35 9 13 5 14 9 5 9 -8 0
-24 -4 -35 -9z"/>
<path d="M868 1831 c-7 -10 -17 -19 -23 -19 -5 0 -11 -6 -13 -14 -3 -11 -2
-11 6 0 7 11 10 10 16 -3 3 -9 3 -22 -1 -27 -4 -7 -1 -8 6 -4 7 5 10 15 6 23
-3 9 2 26 10 39 18 28 12 33 -7 5z"/>
<path d="M799 1763 c-12 -14 -12 -16 1 -9 8 4 5 -1 -7 -11 -33 -28 -77 -110
-107 -200 -33 -100 -39 -130 -26 -138 6 -3 7 1 4 9 -3 9 -1 17 5 17 6 1 16 2
23 3 6 0 13 8 15 16 4 13 3 13 -6 0 -10 -13 -11 -13 -11 0 0 13 -1 13 -10 0
-8 -13 -10 -13 -10 2 0 9 5 20 10 23 6 3 10 19 10 36 0 16 4 29 9 29 8 0 24
50 21 65 0 3 6 13 15 21 8 9 15 22 15 30 0 8 5 14 11 14 6 0 8 -8 4 -19 -3
-11 1 -26 10 -35 21 -20 20 -21 22 11 1 18 -2 22 -7 12 -5 -7 -12 -10 -16 -6
-4 4 0 15 10 25 9 11 14 26 11 34 -3 8 3 25 15 38 11 13 20 27 20 31 0 17 -18
18 -31 2z m-12 -63 c0 -16 -4 -30 -9 -30 -9 0 -11 22 -2 44 9 23 11 20 11 -14z"/>
<path d="M1040 1721 c0 -6 4 -13 10 -16 6 -3 7 1 4 9 -7 18 -14 21 -14 7z"/>
<path d="M581 1604 c1 -32 5 -72 9 -89 5 -17 6 6 3 55 -7 99 -14 120 -12 34z"/>
<path d="M705 1418 c-17 -51 0 -108 31 -108 15 0 28 -32 15 -39 -5 -4 -3 -15
6 -26 15 -19 15 -19 8 5 -7 22 -6 23 8 11 15 -11 16 -9 13 23 -1 20 -4 37 -7
38 -32 20 -52 28 -59 23 -6 -4 -10 1 -10 9 0 10 6 13 15 10 9 -4 15 0 15 10 0
9 -7 16 -16 16 -11 0 -14 6 -9 20 7 21 -3 29 -10 8z"/>
<path d="M1217 1413 c4 -10 16 -27 26 -38 19 -20 19 -20 3 12 -18 35 -40 55
-29 26z"/>
<path d="M682 1395 c0 -16 2 -22 5 -12 2 9 2 23 0 30 -3 6 -5 -1 -5 -18z"/>
<path d="M800 1309 c0 -28 -5 -60 -11 -71 -9 -17 -8 -24 3 -32 8 -6 13 -16 11
-21 -2 -6 12 -28 32 -49 19 -21 33 -43 32 -49 -1 -6 8 -13 21 -15 12 -2 22 1
22 7 0 6 7 11 15 11 8 0 15 -4 15 -10 0 -5 -6 -10 -14 -10 -20 0 -18 -57 3
-73 14 -11 14 -10 2 6 -12 15 -9 21 11 18 5 0 7 2 7 7 -5 23 15 92 27 92 10 0
14 13 14 40 0 29 -4 40 -15 40 -11 0 -15 -11 -15 -40 0 -38 -2 -40 -30 -40
-28 0 -30 2 -30 41 0 36 -2 40 -22 37 -20 -3 -23 2 -26 40 -2 33 0 42 12 42
12 0 16 10 16 40 l0 40 -40 0 -40 0 0 -51z m55 -120 c4 -6 4 -13 0 -17 -3 -3
-10 0 -15 8 -11 17 -13 9 -4 -14 9 -23 23 -20 34 7 5 12 9 15 9 7 0 -8 -5 -25
-12 -38 l-13 -22 -23 31 c-19 25 -21 33 -10 40 19 12 26 11 34 -2z"/>
<path d="M1187 1010 c-9 -11 -13 -20 -8 -20 11 0 35 29 29 35 -2 2 -12 -4 -21
-15z"/>
<path d="M2423 2475 c-3 -9 -3 -18 -1 -21 3 -3 8 4 11 16 6 23 -1 27 -10 5z"/>
<path d="M2389 2451 c11 -7 4 -12 -25 -20 -21 -6 -45 -11 -52 -11 -7 0 -10 -4
-7 -10 3 -5 19 -7 35 -3 31 6 37 -2 19 -27 -9 -12 -10 -11 -4 5 5 15 3 17 -5
8 -14 -13 0 -46 16 -35 16 11 46 81 39 92 -3 6 -12 10 -18 10 -8 0 -7 -4 2 -9z"/>
<path d="M2177 2055 c-4 -9 -3 -13 3 -10 5 3 7 -7 5 -25 -2 -17 0 -28 6 -24 5
3 6 10 3 16 -4 6 0 16 9 23 11 7 13 16 6 26 -7 12 -9 12 -9 -1 0 -12 -2 -12
-9 -2 -7 11 -9 10 -14 -3z"/>
<path d="M1801 1976 c-7 -8 -8 -17 -3 -20 6 -3 13 1 16 10 9 23 2 28 -13 10z"/>
<path d="M2095 1799 c-4 -6 -5 -12 -2 -15 2 -3 7 2 10 11 7 17 1 20 -8 4z"/>
<path d="M1147 1673 c-4 -3 -7 -11 -7 -17 0 -6 5 -5 12 2 6 6 9 14 7 17 -3 3
-9 2 -12 -2z"/>
<path d="M1469 1166 c14 -17 -8 -39 -35 -34 -11 2 -26 -9 -40 -29 -12 -18 -25
-29 -28 -25 -4 3 -4 -2 0 -11 6 -17 8 -17 25 -1 10 9 17 19 15 23 -2 3 2 15
10 26 8 10 14 14 14 9 0 -6 -5 -15 -12 -22 -7 -7 -8 -12 -3 -12 5 0 -2 -11
-15 -25 -18 -19 -26 -22 -37 -13 -11 9 -21 4 -48 -22 -19 -18 -31 -38 -28 -43
3 -6 1 -7 -6 -3 -7 5 -22 -3 -37 -17 -14 -14 -21 -27 -17 -29 4 -3 2 -3 -6 -1
-19 5 -61 -36 -55 -52 3 -7 0 -16 -7 -21 -8 -5 -10 -3 -4 5 6 10 3 11 -14 2
-24 -13 -29 -33 -6 -25 8 4 15 1 15 -6 0 -6 -4 -8 -10 -5 -5 3 -10 1 -10 -6 0
-7 -7 -4 -15 7 -8 10 -15 14 -15 8 0 -6 7 -17 15 -24 12 -10 13 -16 3 -29 -8
-10 -3 -9 12 4 32 26 40 37 33 48 -3 4 1 7 8 5 16 -3 75 50 72 63 -2 4 4 6 12
3 18 -7 20 7 3 26 -11 12 -10 12 5 1 16 -12 26 -6 97 64 43 43 76 83 73 88 -3
6 -2 8 3 4 12 -7 38 13 47 36 4 11 12 15 19 11 7 -4 4 2 -6 14 -21 24 -46 31
-27 8z m-245 -255 c3 -5 -2 -8 -12 -7 -11 1 -16 -5 -14 -16 1 -9 -2 -19 -8
-23 -6 -3 -7 0 -4 9 4 10 1 16 -7 16 -8 0 -5 6 7 15 22 17 31 18 38 6z"/>
<path d="M1506 1064 c-5 -14 -4 -15 9 -4 17 14 19 20 6 20 -5 0 -12 -7 -15
-16z"/>
<path d="M1165 741 c-6 -11 13 -26 22 -17 4 3 1 6 -6 6 -7 0 -9 5 -6 10 3 6 4
10 1 10 -3 0 -7 -4 -11 -9z"/>
<path d="M1495 620 c3 -5 11 -10 16 -10 6 0 7 5 4 10 -3 6 -11 10 -16 10 -6 0
-7 -4 -4 -10z"/>
<path d="M1056 751 c-4 -5 -2 -12 3 -15 5 -4 12 -2 15 3 4 5 2 12 -3 15 -5 4
-12 2 -15 -3z"/>
<path d="M6924 724 c89 -27 146 -40 146 -33 0 5 -17 13 -37 18 -40 11 -141 24
-109 15z"/>
<path d="M7022 415 c-7 -14 -12 -31 -12 -37 0 -14 13 -2 16 15 1 7 5 20 9 30
11 27 0 20 -13 -8z"/>
<path d="M2095 6164 c-59 -39 -114 -93 -146 -143 -48 -74 -33 -75 32 -3 34 37
87 90 118 119 61 57 59 69 -4 27z"/>
<path d="M1782 4954 c-32 -158 -26 -228 21 -288 l23 -28 -7 73 c-4 41 -8 115
-9 164 -1 50 -5 101 -9 115 -6 21 -9 15 -19 -36z"/>
<path d="M2174 4277 c3 -10 6 -29 6 -42 0 -13 12 -37 26 -52 l25 -28 -7 25
c-3 14 -17 45 -31 70 -13 25 -22 37 -19 27z"/>
<path d="M3026 2705 c-15 -8 -38 -15 -50 -16 -20 0 -20 -1 -1 -9 16 -7 14 -9
-15 -9 -19 -1 -41 -5 -48 -10 -8 -4 20 -7 65 -6 45 1 84 -3 92 -9 9 -7 8 -1
-3 16 -10 16 -16 35 -12 43 7 18 8 18 -28 0z"/>
<path d="M2820 2650 c-18 -12 -2 -12 25 0 13 6 15 9 5 9 -8 0 -22 -4 -30 -9z"/>
<path d="M2750 2625 c0 -4 8 -14 18 -21 16 -13 16 -15 -3 -30 -18 -15 -18 -16
-2 -10 10 3 22 6 26 6 4 0 8 14 8 30 0 18 -3 26 -8 19 -6 -10 -11 -10 -23 0
-9 8 -16 10 -16 6z"/>
<path d="M2960 2570 c0 -5 16 -10 35 -10 19 0 35 5 35 10 0 6 -16 10 -35 10
-19 0 -35 -4 -35 -10z"/>
<path d="M2640 2280 c0 -5 5 -10 11 -10 5 0 7 5 4 10 -3 6 -8 10 -11 10 -2 0
-4 -4 -4 -10z"/>
<path d="M2421 2184 c0 -11 3 -14 6 -6 3 7 2 16 -1 19 -3 4 -6 -2 -5 -13z"/>
<path d="M2480 2139 c0 -5 5 -7 10 -4 6 3 10 8 10 11 0 2 -4 4 -10 4 -5 0 -10
-5 -10 -11z"/>
<path d="M2360 2035 c7 -9 10 -19 6 -22 -4 -4 -11 -2 -15 6 -7 10 -9 10 -14
-2 -4 -10 3 -14 26 -13 18 1 32 8 34 16 4 13 3 13 -6 0 -9 -12 -11 -11 -11 8
0 14 -6 22 -16 22 -14 0 -14 -3 -4 -15z"/>
<path d="M2335 1979 c-11 -17 1 -21 15 -4 8 9 8 15 2 15 -6 0 -14 -5 -17 -11z"/>
<path d="M3161 1834 c0 -11 3 -14 6 -6 3 7 2 16 -1 19 -3 4 -6 -2 -5 -13z"/>
<path d="M2252 1833 c1 -4 -4 -19 -11 -32 -8 -14 -8 -21 -2 -17 19 12 32 44
21 51 -6 4 -9 3 -8 -2z"/>
<path d="M3151 1784 c0 -11 3 -14 6 -6 3 7 2 16 -1 19 -3 4 -6 -2 -5 -13z"/>
<path d="M4996 1727 c3 -10 9 -15 12 -12 3 3 0 11 -7 18 -10 9 -11 8 -5 -6z"/>
<path d="M455 1547 c4 -10 2 -17 -5 -17 -6 0 -9 -4 -5 -9 3 -6 -6 -20 -20 -33
-23 -22 -54 -95 -35 -83 5 3 11 19 15 35 4 17 11 30 15 30 5 0 7 -8 4 -17 -3
-10 4 -1 15 19 12 20 27 41 35 45 11 6 9 12 -6 28 -16 16 -18 17 -13 2z"/>
<path d="M7322 1450 c0 -25 3 -65 7 -90 l8 -45 1 40 c0 22 -3 63 -8 90 l-7 50
-1 -45z"/>
<path d="M4223 1372 c-10 -7 -10 -12 0 -25 11 -16 12 -15 12 8 0 14 0 25 0 25
0 0 -6 -4 -12 -8z"/>
<path d="M5625 1350 c24 -47 92 -147 106 -156 7 -4 -6 20 -28 52 -22 32 -43
69 -47 80 -4 12 -16 30 -28 40 l-21 19 18 -35z"/>
<path d="M4251 1344 c0 -11 3 -14 6 -6 3 7 2 16 -1 19 -3 4 -6 -2 -5 -13z"/>
<path d="M430 1346 c0 -2 7 -9 15 -16 9 -7 15 -8 15 -2 0 5 -7 12 -15 16 -8 3
-15 4 -15 2z"/>
<path d="M407 1329 c7 -7 15 -10 18 -7 3 3 -2 9 -12 12 -14 6 -15 5 -6 -5z"/>
<path d="M5315 1125 c17 -14 53 -38 80 -54 28 -15 70 -45 93 -65 24 -20 46
-36 49 -36 2 0 -12 20 -32 45 -24 29 -66 60 -120 90 -93 51 -114 57 -70 20z"/>
<path d="M7342 1100 c0 -14 2 -19 5 -12 2 6 2 18 0 25 -3 6 -5 1 -5 -13z"/>
<path d="M565 1055 l-90 -13 100 5 c55 3 111 6 125 7 21 1 25 -3 24 -26 0 -15
4 -25 8 -22 4 3 8 1 8 -5 0 -5 -5 -13 -11 -17 -8 -4 -7 -9 2 -15 21 -13 27
-11 40 12 8 16 8 24 -2 33 -9 8 -11 7 -6 -7 4 -12 3 -16 -4 -11 -6 3 -9 14 -6
24 4 14 1 17 -12 12 -14 -5 -14 -3 -3 10 7 9 9 18 5 20 -16 9 -90 6 -178 -7z
m195 -75 c0 -5 -4 -10 -10 -10 -5 0 -10 5 -10 10 0 6 5 10 10 10 6 0 10 -4 10
-10z"/>
<path d="M385 1010 c3 -5 8 -10 11 -10 2 0 4 5 4 10 0 6 -5 10 -11 10 -5 0 -7
-4 -4 -10z"/>
<path d="M2933 828 c-131 -143 -253 -265 -328 -327 -40 -33 -40 -33 -10 -26
40 9 98 57 240 200 109 109 245 279 233 291 -3 2 -64 -60 -135 -138z"/>
<path d="M818 923 c-10 -2 -18 -9 -18 -14 0 -6 8 -5 20 1 11 6 20 13 20 15 0
3 -1 4 -2 4 -2 -1 -11 -3 -20 -6z"/>
<path d="M820 890 c-12 -7 -10 -9 7 -7 12 0 19 5 17 9 -6 10 -6 10 -24 -2z"/>
<path d="M884 826 c1 -29 3 -33 19 -25 14 8 17 5 17 -16 0 -14 5 -25 10 -25
12 0 12 7 1 35 -5 11 -14 20 -21 20 -7 0 -14 8 -16 18 -5 33 -11 29 -10 -7z"/>
<path d="M2410 782 c8 -5 38 -15 67 -22 61 -14 71 -23 82 -81 l9 -44 1 47 c1
63 -7 68 -154 104 -15 4 -17 3 -5 -4z"/>
<path d="M5146 769 c32 -36 162 -119 242 -156 64 -29 73 -31 57 -13 -10 11
-53 37 -94 57 -42 20 -106 59 -143 85 -73 52 -92 60 -62 27z"/>
<path d="M880 750 c0 -5 5 -10 10 -10 6 0 10 5 10 10 0 6 -4 10 -10 10 -5 0
-10 -4 -10 -10z"/>
<path d="M964 729 c-4 -8 -3 -9 4 -5 8 5 12 0 12 -13 0 -20 36 -48 47 -37 3 3
-2 8 -11 12 -9 3 -16 12 -16 19 0 20 -27 38 -36 24z"/>
<path d="M970 670 c0 -5 5 -10 11 -10 5 0 7 5 4 10 -3 6 -8 10 -11 10 -2 0 -4
-4 -4 -10z"/>
<path d="M1005 649 c-5 -8 -1 -9 13 -5 18 6 21 2 25 -31 l4 -38 -1 40 c-1 40
-25 61 -41 34z"/>
<path d="M1087 643 c-12 -12 -7 -41 8 -46 20 -8 28 8 10 23 -8 7 -12 16 -9 21
6 11 0 12 -9 2z"/>
<path d="M1605 590 c-3 -6 1 -7 9 -4 18 7 21 14 7 14 -6 0 -13 -4 -16 -10z"/>
<path d="M1115 580 c-3 -5 -16 -10 -28 -10 l-21 0 22 -22 c24 -24 32 -21 35
11 1 12 6 19 12 17 5 -2 9 -9 8 -15 -2 -6 2 -11 7 -11 14 0 13 13 -2 28 -15
15 -25 15 -33 2z"/>
<path d="M2331 544 c0 -11 3 -14 6 -6 3 7 2 16 -1 19 -3 4 -6 -2 -5 -13z"/>
<path d="M1190 520 c0 -5 4 -10 9 -10 6 0 13 5 16 10 3 6 -1 10 -9 10 -9 0
-16 -4 -16 -10z"/>
<path d="M1206 485 c4 -8 13 -15 22 -15 13 0 13 -2 -1 -18 -10 -10 -17 -28
-17 -40 0 -12 -4 -22 -9 -22 -5 0 -5 16 -1 37 10 41 6 53 -16 53 -12 0 -15
-10 -13 -46 3 -37 -1 -49 -18 -62 -22 -18 -44 -70 -24 -58 6 4 11 16 11 27 0
10 7 19 15 19 9 0 12 -6 8 -16 -5 -14 -3 -14 16 -2 17 10 18 14 6 16 -25 5
-17 24 8 20 18 -2 38 11 77 49 52 51 52 52 21 47 -25 -4 -30 -2 -25 10 4 11 0
16 -11 16 -9 0 -13 -4 -10 -10 8 -13 -1 -13 -25 0 -16 8 -18 8 -14 -5z m89
-26 c-4 -5 -18 -14 -31 -19 -13 -5 -24 -16 -24 -24 0 -7 -7 -19 -15 -26 -13
-11 -13 -8 -4 18 12 35 25 48 54 55 11 2 21 5 23 6 2 0 0 -4 -3 -10z"/>
<path d="M1830 439 c-69 -6 -129 -14 -134 -19 -12 -12 14 -420 27 -420 5 0 7
15 3 33 -3 17 -10 108 -17 201 -9 130 -9 170 1 176 23 14 383 21 529 10 79 -6
145 -9 147 -7 9 8 -180 28 -305 32 -69 2 -182 -1 -251 -6z"/>
<path d="M1070 290 c0 -5 4 -10 10 -10 5 0 7 -8 4 -17 -5 -14 -4 -15 4 -4 11
15 5 41 -9 41 -5 0 -9 -4 -9 -10z"/>
<path d="M1115 289 c-4 -6 -5 -12 -2 -15 2 -3 7 2 10 11 7 17 1 20 -8 4z"/>
<path d="M1422 265 c0 -16 2 -22 5 -12 2 9 2 23 0 30 -3 6 -5 -1 -5 -18z"/>
<path d="M1381 237 c-1 -27 -6 -57 -11 -67 -6 -11 -12 -40 -15 -66 -2 -25 -7
-59 -10 -75 -6 -25 -3 -29 14 -29 18 0 21 6 21 40 0 29 4 40 15 40 11 0 15 11
15 40 0 22 -4 40 -10 40 -5 0 -7 7 -3 16 6 15 8 15 20 -2 13 -17 14 -16 11 16
-2 21 -8 34 -15 33 -7 -2 -17 12 -22 30 -9 31 -9 31 -10 -16z"/>
<path d="M989 229 c-6 -3 5 -6 24 -6 20 1 34 3 31 6 -7 8 -42 8 -55 0z"/>
<path d="M1010 196 c7 -7 13 -7 20 0 6 6 3 10 -10 10 -13 0 -16 -4 -10 -10z"/>
<path d="M941 151 c-9 -6 -10 -11 -2 -15 6 -4 11 -2 11 4 0 6 5 8 12 4 7 -4 8
-3 4 4 -8 14 -7 14 -25 3z"/>
<path d="M836 55 c-11 -8 -15 -15 -9 -15 6 0 16 7 23 15 16 19 11 19 -14 0z"/>
</g>
</svg>
